<svg width="21" height="21" viewBox="0 0 21 21" fill="none" xmlns="http://www.w3.org/2000/svg">
<path d="M1.25 14.2849C0.532561 14.6992 0.286748 15.6165 0.700962 16.334C1.11518 17.0514 2.03256 17.2972 2.75 16.883L1.25 14.2849ZM20.7694 5.97221C20.9838 5.17201 20.5089 4.34951 19.7087 4.1351L6.66874 0.641039C5.86854 0.426626 5.04603 0.901499 4.83162 1.7017C4.61721 2.5019 5.09208 3.3244 5.89228 3.53882L17.4834 6.64464L14.3776 18.2358C14.1631 19.036 14.638 19.8585 15.4382 20.0729C16.2384 20.2873 17.0609 19.8124 17.2753 19.0122L20.7694 5.97221ZM2.75 16.883L20.0705 6.88302L18.5705 4.28495L1.25 14.2849L2.75 16.883Z" fill="#0000FF"/>
</svg>
