<svg width="126" height="218" viewBox="0 0 126 218" fill="none" xmlns="http://www.w3.org/2000/svg">
<path d="M32.5907 20.528C31.1609 19.5381 29.7128 18.5483 28.2464 17.5767C27.8431 17.3018 27.7148 16.7519 27.9897 16.3486C28.2647 15.9453 28.8146 15.817 29.2179 16.092C30.7027 17.0635 32.1691 18.0533 33.5989 19.0615C34.0022 19.3365 34.1122 19.9047 33.8189 20.308C33.6539 20.5646 33.3606 20.6929 33.0856 20.6929C32.9023 20.6929 32.7374 20.638 32.5724 20.528H32.5907ZM24.7819 13.2141C23.2971 12.2792 21.794 11.3443 20.2726 10.4278C19.851 10.1712 19.3011 10.2995 19.0444 10.7394C18.7878 11.161 18.9344 11.7109 19.356 11.9676C20.8591 12.8841 22.3623 13.8006 23.8287 14.7355C23.9754 14.8272 24.1403 14.8821 24.3053 14.8821C24.5986 14.8821 24.8919 14.7355 25.0569 14.4605C25.3135 14.0389 25.2035 13.489 24.7819 13.2324V13.2141ZM57.8869 40.38C58.1252 40.38 58.3636 40.2884 58.5469 40.0867C58.8768 39.7201 58.8585 39.1519 58.4919 38.8219C57.1904 37.6488 55.8706 36.4756 54.5325 35.3024C54.1659 34.9725 53.5976 35.0275 53.2677 35.3941C52.9377 35.7607 52.9927 36.329 53.3593 36.6589C54.6974 37.8137 55.9989 38.9869 57.2821 40.16C57.447 40.325 57.667 40.3983 57.8869 40.3983V40.38ZM51.0497 201.909C49.6016 200.993 48.1351 200.04 46.6503 199.05C46.2471 198.775 45.6971 198.885 45.4038 199.288C45.1288 199.691 45.2388 200.241 45.6421 200.535C47.1452 201.543 48.63 202.514 50.0781 203.431C50.2248 203.522 50.3897 203.559 50.5547 203.559C50.848 203.559 51.1413 203.412 51.3063 203.137C51.5629 202.716 51.4346 202.166 51.0313 201.909H51.0497ZM15.7083 7.76987C14.1868 6.89 12.647 6.02846 11.0889 5.18525C10.649 4.94696 10.1174 5.11193 9.87914 5.53354C9.64084 5.97347 9.80577 6.50506 10.2274 6.74336C11.7671 7.58656 13.3069 8.4481 14.81 9.30964C14.9567 9.38296 15.1034 9.41962 15.25 9.41962C15.5616 9.41962 15.8549 9.25465 16.0198 8.97969C16.2581 8.55808 16.1115 8.00817 15.6899 7.76987H15.7083ZM49.9132 33.4694C50.1698 33.4694 50.4264 33.3594 50.5914 33.1394C50.903 32.7545 50.848 32.2046 50.4814 31.8929C49.125 30.7748 47.7685 29.6566 46.3753 28.5568C45.9904 28.2635 45.4221 28.3185 45.1289 28.7034C44.8172 29.0884 44.8906 29.6566 45.2755 29.9499C46.6503 31.0497 48.0068 32.1496 49.3632 33.2677C49.5282 33.4144 49.7298 33.4694 49.9315 33.4694H49.9132ZM38.1266 192.909C37.7416 192.616 37.1734 192.689 36.8801 193.074C36.5868 193.459 36.6601 194.027 37.0451 194.32C38.4748 195.42 39.9046 196.465 41.2978 197.473C41.4627 197.583 41.646 197.638 41.811 197.638C42.086 197.638 42.361 197.51 42.5259 197.272C42.8192 196.868 42.7276 196.318 42.3243 196.025C40.9312 195.017 39.5197 193.972 38.1083 192.891L38.1266 192.909ZM41.0962 26.7237C41.2611 26.852 41.4444 26.907 41.6277 26.907C41.9027 26.907 42.1593 26.7787 42.3426 26.5587C42.6359 26.1738 42.5626 25.6055 42.1777 25.3123C40.7845 24.2491 39.3547 23.2042 37.9249 22.1594C37.54 21.8661 36.9718 21.9578 36.6785 22.361C36.3852 22.7643 36.4768 23.3142 36.8801 23.6075C38.3099 24.634 39.7214 25.6789 41.0962 26.742V26.7237ZM29.9145 186.328C29.5295 186.017 28.9796 186.053 28.6497 186.438C28.338 186.823 28.3747 187.373 28.7596 187.703C30.1344 188.858 31.5093 189.976 32.8474 191.058C33.0124 191.186 33.214 191.259 33.3973 191.259C33.6539 191.259 33.9105 191.149 34.0939 190.929C34.4055 190.544 34.3321 189.976 33.9472 189.683C32.609 188.601 31.2526 187.501 29.8778 186.347L29.9145 186.328ZM120.284 141.327C120.706 143.05 121.091 144.754 121.439 146.441C121.531 146.863 121.897 147.156 122.319 147.156C122.374 147.156 122.447 147.156 122.502 147.156C122.979 147.064 123.291 146.588 123.199 146.111C122.851 144.406 122.466 142.665 122.044 140.923C121.934 140.447 121.458 140.153 120.963 140.263C120.486 140.373 120.193 140.868 120.303 141.345L120.284 141.327ZM122.392 151.61C122.686 153.352 122.924 155.093 123.144 156.798C123.199 157.256 123.584 157.586 124.024 157.586C124.06 157.586 124.097 157.586 124.134 157.586C124.629 157.531 124.977 157.091 124.904 156.596C124.702 154.855 124.445 153.113 124.152 151.335C124.079 150.859 123.602 150.51 123.126 150.602C122.631 150.675 122.319 151.134 122.392 151.628V151.61ZM6.39628 2.67396C4.83818 1.86741 3.26177 1.06087 1.66701 0.272651C1.22707 0.0526835 0.695499 0.23599 0.475531 0.675925C0.255564 1.11586 0.438872 1.64745 0.878807 1.86741C2.45524 2.65563 4.03167 3.44385 5.57144 4.25039C5.69975 4.32371 5.8464 4.34205 5.97471 4.34205C6.28633 4.34205 6.59794 4.15874 6.76292 3.86545C6.98288 3.42551 6.81792 2.89393 6.37799 2.65563L6.39628 2.67396ZM117.461 131.208C117.993 132.895 118.488 134.581 118.965 136.249C119.075 136.634 119.441 136.891 119.826 136.891C119.899 136.891 119.991 136.891 120.064 136.854C120.541 136.726 120.816 136.231 120.688 135.754C120.211 134.068 119.716 132.381 119.166 130.677C119.02 130.2 118.525 129.943 118.048 130.09C117.571 130.237 117.315 130.732 117.461 131.208ZM123.657 162.004C123.785 163.763 123.877 165.523 123.932 167.228C123.932 167.704 124.335 168.089 124.83 168.089H124.849C125.344 168.089 125.729 167.668 125.71 167.173C125.655 165.431 125.564 163.653 125.435 161.857C125.399 161.362 124.959 160.995 124.482 161.032C123.987 161.069 123.621 161.49 123.657 161.985V162.004ZM115.793 126.241C115.922 126.607 116.27 126.845 116.637 126.845C116.728 126.845 116.838 126.845 116.93 126.79C117.388 126.626 117.645 126.112 117.48 125.654C116.912 124.004 116.288 122.336 115.647 120.668C115.463 120.21 114.95 119.971 114.492 120.155C114.034 120.338 113.795 120.851 113.979 121.31C114.62 122.959 115.207 124.609 115.793 126.241ZM97.591 88.4429C97.756 88.7178 98.0493 88.8645 98.3426 88.8645C98.5076 88.8645 98.6726 88.8278 98.8192 88.7362C99.2408 88.4795 99.3691 87.9296 99.1125 87.508C98.196 86.0232 97.2428 84.5201 96.2712 83.0353C95.9963 82.6137 95.4464 82.5037 95.0431 82.7787C94.6215 83.0537 94.5115 83.6036 94.7865 84.0069C95.758 85.4916 96.6929 86.9581 97.6094 88.4429H97.591ZM107.728 106.865C107.875 107.177 108.204 107.36 108.534 107.36C108.663 107.36 108.791 107.323 108.919 107.268C109.359 107.048 109.543 106.517 109.341 106.077C108.571 104.5 107.783 102.924 106.976 101.329C106.756 100.889 106.206 100.724 105.767 100.944C105.327 101.164 105.162 101.714 105.382 102.154C106.188 103.731 106.976 105.289 107.728 106.847V106.865ZM89.8555 215.822C88.1874 215.822 86.4644 215.694 84.7046 215.474C84.228 215.419 83.7698 215.767 83.7148 216.244C83.6598 216.739 84.0081 217.179 84.4847 217.234C86.3177 217.454 88.1141 217.582 89.8555 217.582C90.3505 217.582 90.7538 217.179 90.7538 216.702C90.7538 216.207 90.3688 215.804 89.8739 215.804L89.8555 215.822ZM60.1416 207.152C58.6385 206.364 57.0988 205.52 55.559 204.622C55.1374 204.384 54.5875 204.531 54.3492 204.952C54.1109 205.374 54.2575 205.924 54.6791 206.162C56.2555 207.079 57.8136 207.922 59.3351 208.728C59.4634 208.802 59.61 208.82 59.7384 208.82C60.05 208.82 60.3616 208.637 60.5266 208.343C60.7465 207.903 60.5816 207.372 60.1416 207.134V207.152ZM109.029 209.736C107.673 210.781 106.243 211.698 104.722 212.486C104.282 212.706 104.117 213.256 104.337 213.696C104.502 214.008 104.813 214.172 105.125 214.172C105.272 214.172 105.4 214.136 105.528 214.081C107.123 213.256 108.681 212.266 110.111 211.166C110.496 210.873 110.569 210.305 110.276 209.92C109.964 209.535 109.414 209.462 109.029 209.755V209.736ZM113.209 116.929C113.667 116.745 113.887 116.214 113.685 115.755C113.007 114.142 112.311 112.511 111.577 110.898C111.376 110.458 110.844 110.256 110.404 110.458C109.946 110.66 109.763 111.191 109.964 111.631C110.697 113.244 111.394 114.839 112.054 116.452C112.201 116.8 112.53 117.002 112.879 117.002C112.989 117.002 113.117 116.984 113.227 116.929H113.209ZM104.465 96.6733C103.622 95.1335 102.742 93.5938 101.844 92.054C101.605 91.6324 101.056 91.4857 100.634 91.7424C100.212 91.999 100.066 92.5306 100.322 92.9522C101.221 94.4736 102.082 95.9951 102.907 97.5348C103.072 97.8281 103.365 97.9931 103.695 97.9931C103.842 97.9931 103.988 97.9565 104.117 97.8831C104.557 97.6448 104.703 97.0949 104.465 96.6733ZM121.604 192.396C121.128 192.231 120.633 192.469 120.468 192.946C119.881 194.614 119.221 196.208 118.488 197.73C118.268 198.17 118.451 198.701 118.91 198.921C119.038 198.976 119.166 199.013 119.294 199.013C119.624 199.013 119.936 198.83 120.101 198.518C120.871 196.942 121.549 195.274 122.154 193.551C122.319 193.092 122.081 192.579 121.604 192.414V192.396ZM124.867 171.609C124.335 171.59 123.969 171.975 123.95 172.47C123.895 174.248 123.804 175.99 123.639 177.676C123.602 178.171 123.951 178.593 124.445 178.648C124.464 178.648 124.5 178.648 124.519 178.648C124.977 178.648 125.362 178.299 125.399 177.841C125.564 176.118 125.655 174.322 125.71 172.525C125.71 172.03 125.344 171.627 124.849 171.609H124.867ZM100.011 214.392C98.4159 214.887 96.7295 215.254 95.0064 215.492C94.5115 215.566 94.1816 216.006 94.2366 216.5C94.2916 216.94 94.6765 217.27 95.1165 217.27C95.1531 217.27 95.1897 217.27 95.2447 217.27C97.0595 217.014 98.8559 216.629 100.542 216.116C101.019 215.969 101.276 215.474 101.129 214.997C100.982 214.521 100.487 214.264 100.011 214.411V214.392ZM124.024 182.112C123.547 182.039 123.071 182.369 122.997 182.845C122.722 184.587 122.356 186.31 121.952 187.941C121.824 188.418 122.117 188.895 122.594 189.023C122.667 189.023 122.741 189.041 122.814 189.041C123.217 189.041 123.584 188.766 123.676 188.363C124.097 186.677 124.445 184.917 124.739 183.12C124.812 182.626 124.482 182.167 124.005 182.094L124.024 182.112ZM117.186 201.928C116.783 201.653 116.215 201.763 115.958 202.184C115.005 203.632 113.942 205.007 112.824 206.235C112.494 206.602 112.512 207.17 112.879 207.5C113.044 207.647 113.264 207.738 113.484 207.738C113.722 207.738 113.96 207.647 114.144 207.445C115.335 206.144 116.453 204.696 117.461 203.174C117.736 202.771 117.626 202.203 117.205 201.946L117.186 201.928ZM73.5413 53.7614C72.3498 52.4599 71.14 51.1767 69.9119 49.8936C69.5636 49.5453 69.0137 49.527 68.6471 49.8753C68.2988 50.2236 68.2804 50.7735 68.6287 51.1401C69.8569 52.4049 71.0483 53.688 72.2215 54.9712C72.4048 55.1545 72.6431 55.2645 72.8814 55.2645C73.1014 55.2645 73.3213 55.1911 73.4863 55.0262C73.8529 54.6962 73.8712 54.128 73.5413 53.7614ZM69.6736 211.46C68.0971 210.836 66.484 210.158 64.871 209.425C64.431 209.223 63.8994 209.425 63.6794 209.865C63.4778 210.305 63.6795 210.836 64.1194 211.038C65.7691 211.79 67.4189 212.486 69.032 213.128C69.142 213.164 69.2519 213.183 69.3619 213.183C69.7102 213.183 70.0585 212.963 70.1868 212.614C70.3701 212.156 70.1318 211.643 69.6736 211.46ZM65.5675 47.6389C65.7874 47.6389 66.0257 47.5473 66.1907 47.3823C66.539 47.034 66.539 46.4658 66.1907 46.1175C64.9442 44.871 63.6795 43.6429 62.3963 42.4147C62.048 42.0664 61.4798 42.0848 61.1315 42.4514C60.7832 42.7997 60.8015 43.3679 61.1681 43.7162C62.4513 44.926 63.6978 46.1542 64.9442 47.3823C65.1092 47.5473 65.3475 47.6389 65.5675 47.6389ZM90.2955 74.2733C90.0022 73.87 89.4522 73.7784 89.049 74.0717C88.6457 74.365 88.5541 74.9149 88.8474 75.3181C89.8739 76.7479 90.9004 78.1777 91.8719 79.6075C92.0369 79.8641 92.3302 79.9925 92.6051 79.9925C92.7884 79.9925 92.9534 79.9375 93.1184 79.8275C93.5216 79.5525 93.6317 78.9843 93.3384 78.581C92.3485 77.1329 91.322 75.6848 90.2772 74.255L90.2955 74.2733ZM86.4277 71.4504C86.611 71.4504 86.8127 71.3954 86.9593 71.2671C87.3443 70.9738 87.4359 70.4055 87.1243 70.0206C86.0611 68.6275 84.9796 67.2344 83.8614 65.8412C83.5498 65.4563 82.9999 65.4013 82.615 65.6946C82.23 66.0062 82.175 66.5561 82.4683 66.9411C83.5681 68.3158 84.6497 69.709 85.6945 71.0838C85.8778 71.3221 86.1345 71.4321 86.4094 71.4321L86.4277 71.4504ZM79.6271 214.557C77.9957 214.191 76.3092 213.733 74.6045 213.201C74.1279 213.054 73.6329 213.311 73.4863 213.788C73.3397 214.264 73.5963 214.759 74.0729 214.906C75.8143 215.456 77.5557 215.914 79.2421 216.299C79.3155 216.299 79.3704 216.317 79.4438 216.317C79.847 216.317 80.2136 216.042 80.3053 215.621C80.4153 215.144 80.1037 214.667 79.6271 214.557ZM77.0791 57.7024C76.7491 57.3358 76.1809 57.2992 75.8143 57.6291C75.4477 57.9591 75.411 58.509 75.741 58.8939C76.8958 60.2137 78.0506 61.5519 79.1688 62.89C79.3521 63.11 79.5904 63.2016 79.847 63.2016C80.0487 63.2016 80.2503 63.1283 80.4153 63C80.8002 62.6884 80.8369 62.1201 80.5253 61.7352C79.4071 60.3787 78.2523 59.0406 77.0791 57.7024Z" fill="#0000FF"/>
</svg>
