<svg width="184" height="201" viewBox="0 0 184 201" fill="none" xmlns="http://www.w3.org/2000/svg">
<path d="M10.2007 110.17C9.88343 110.316 9.51365 110.235 9.25666 110.02C9.15672 109.936 9.06807 109.838 9.01625 109.726C8.20798 108.109 7.45083 106.489 6.74478 104.866C6.54874 104.403 6.74732 103.906 7.20359 103.739C7.65987 103.572 8.17539 103.798 8.37143 104.261C9.04592 105.834 9.78881 107.443 10.5798 109.023C10.7984 109.458 10.6284 109.979 10.2007 110.17ZM93.035 6.52307C93.5145 6.44447 93.807 5.9799 93.6877 5.51327C93.5796 5.0332 93.0919 4.71558 92.6266 4.80615C90.8986 5.09686 89.1991 5.41154 87.5282 5.75017C87.0629 5.84074 86.7704 6.30532 86.8898 6.77195C86.9393 6.97385 87.0483 7.13396 87.191 7.25376C87.4052 7.43346 87.684 7.50709 87.9621 7.46561C89.6218 7.14042 91.3212 6.82575 93.0237 6.5365L93.035 6.52307ZM6.47203 99.3917C5.89077 97.7358 5.37188 96.0637 4.92138 94.4259C4.78774 93.9473 4.30304 93.6551 3.83778 93.7457C3.36123 93.8497 3.09426 94.3128 3.21363 94.7795C3.67013 96.468 4.20628 98.1776 4.80482 99.8709C4.86265 100.034 4.96859 100.169 5.09709 100.276C5.32552 100.468 5.64417 100.552 5.94183 100.458C6.40111 100.317 6.65378 99.842 6.4833 99.3783L6.47203 99.3917ZM73.502 9.85323C73.3571 9.38806 72.8356 9.11077 72.3876 9.23874C70.6918 9.69395 69.0359 10.1597 67.4085 10.6494C66.9493 10.7908 66.7109 11.2779 66.8813 11.7416C66.9392 11.9046 67.0451 12.0393 67.1736 12.1471C67.402 12.3388 67.7207 12.423 68.0184 12.3292C69.6344 11.8529 71.2761 11.3752 72.9463 10.9215C73.4086 10.8055 73.6725 10.3169 73.502 9.85323ZM3.02048 84.3106C2.9635 83.8276 2.53219 83.4428 2.03536 83.484C1.54982 83.5118 1.18592 83.9165 1.25718 84.4114C1.43557 86.1415 1.69362 87.8926 2.02833 89.6393C2.0666 89.8546 2.19281 90.0521 2.34986 90.1839C2.54974 90.3516 2.80301 90.4267 3.06984 90.3987C3.55239 90.3455 3.85918 89.8929 3.77664 89.4114C3.44792 87.7155 3.20714 86.0018 3.03476 84.3226L3.02048 84.3106ZM113.265 2.01422C111.511 2.19127 109.796 2.37884 108.082 2.5664C107.599 2.61958 107.278 3.06019 107.361 3.54172C107.399 3.75706 107.525 3.95458 107.682 4.08636C107.868 4.2421 108.135 4.32918 108.377 4.30259C110.077 4.10304 111.791 3.91548 113.52 3.73989C114.003 3.68672 114.338 3.25808 114.255 2.77655C114.173 2.29502 113.719 1.93709 113.236 1.99026L113.265 2.01422ZM22.072 126.728C20.9555 125.333 19.8871 123.91 18.8586 122.497C18.5776 122.078 18.0004 121.983 17.6185 122.235C17.2254 122.501 17.1493 123.055 17.4528 123.447C18.4844 124.886 19.5926 126.319 20.7121 127.74C20.7549 127.776 20.8007 127.837 20.8436 127.873C21.1577 128.136 21.6379 128.173 21.9574 127.937C22.3363 127.66 22.3868 127.107 22.0833 126.714L22.072 126.728ZM103.952 3.97968C103.858 3.51159 103.393 3.16709 102.911 3.22027C101.177 3.46014 99.4568 3.71198 97.7626 3.96237C97.283 4.04096 96.9875 4.48012 97.0701 4.96165C97.1196 5.16355 97.2315 5.34909 97.3886 5.48087C97.5885 5.64859 97.856 5.73566 98.1341 5.69418C99.814 5.43181 101.523 5.1934 103.257 4.95353C103.725 4.88838 104.046 4.44776 103.963 3.96623L103.952 3.97968ZM135.059 1.38273C135.002 0.899742 134.57 0.514928 134.085 0.54268C132.319 0.618047 130.592 0.703933 128.866 0.789817C128.38 0.817572 128.031 1.23423 128.088 1.71721C128.103 1.95944 128.244 2.16894 128.415 2.3127C128.586 2.45646 128.828 2.54499 129.058 2.53185C130.771 2.43398 132.497 2.3481 134.252 2.28617C134.738 2.25842 135.101 1.85374 135.045 1.37075L135.059 1.38273ZM15.8632 118.151C14.888 116.646 13.964 115.138 13.0941 113.652C12.8499 113.218 12.3036 113.057 11.8788 113.273C11.4541 113.49 11.3239 114.022 11.5681 114.456C12.441 115.967 13.3823 117.512 14.386 119.042C14.4349 119.129 14.5063 119.188 14.5776 119.248C14.8775 119.5 15.2953 119.553 15.6178 119.342C16.0253 119.089 16.1299 118.558 15.8632 118.151ZM118.715 3.28939C120.421 3.14068 122.142 3.00395 123.891 2.89119C124.377 2.86344 124.712 2.4348 124.669 1.96379C124.612 1.4808 124.158 1.12287 123.684 1.13718C121.924 1.26339 120.189 1.38813 118.483 1.53684C118 1.59001 117.662 1.99323 117.733 2.48819C117.76 2.71698 117.886 2.9145 118.058 3.05826C118.243 3.214 118.485 3.30254 118.727 3.27595L118.715 3.28939ZM15.1011 42.4556C15.4866 42.7791 16.0232 42.7484 16.342 42.3975C17.4021 41.1341 18.5449 39.9171 19.7163 38.7241C20.0493 38.3852 20.0232 37.8364 19.6603 37.4861C19.3003 37.1612 18.7434 37.129 18.4103 37.468C17.2022 38.6759 16.0398 39.9451 14.9429 41.2234C14.6384 41.5863 14.6901 42.1336 15.0755 42.4571L15.1011 42.4556ZM10.5012 50.4601C11.3389 49.0558 12.2675 47.6592 13.2533 46.3104C13.5292 45.9236 13.4264 45.3792 13.0184 45.0826C12.6104 44.7861 12.0654 44.8556 11.7895 45.2425C10.7812 46.6181 9.83297 48.067 8.96144 49.5116C8.74787 49.8821 8.83041 50.3636 9.17306 50.6511C9.20162 50.6751 9.24445 50.711 9.273 50.735C9.7036 51.0047 10.2425 50.8843 10.4787 50.4869L10.5012 50.4601ZM22.1172 35.196C22.1172 35.196 22.1886 35.2559 22.2171 35.2798C22.5598 35.5673 23.0626 35.577 23.3761 35.2903C24.5993 34.2096 25.8991 33.1244 27.2305 32.0886C27.5951 31.799 27.6456 31.2459 27.3308 30.8672C27.016 30.4886 26.4531 30.4056 26.0885 30.6951C24.7345 31.7578 23.4091 32.8444 22.1634 33.9521C21.8018 34.2671 21.8024 34.8173 22.1285 35.1825L22.1172 35.196ZM30.0311 28.8959C30.0311 28.8959 30.1228 29.0186 30.1799 29.0665C30.494 29.3301 30.9345 29.3561 31.257 29.1457C32.6003 28.2116 34.0347 27.2851 35.475 26.4094C35.8824 26.1558 35.9871 25.6252 35.7061 25.2062C35.4251 24.7872 34.8817 24.6519 34.4743 24.9055C33.0114 25.808 31.5658 26.748 30.1856 27.697C29.7924 27.9626 29.7163 28.5172 30.0199 28.9093L30.0311 28.8959ZM77.1211 9.45443C77.3353 9.63412 77.6427 9.73171 77.9291 9.65136C79.5684 9.26335 81.2333 8.87388 82.9381 8.49493C83.4146 8.39092 83.6816 7.92781 83.5479 7.4492C83.4143 6.97059 82.9296 6.6784 82.453 6.78241C80.734 7.14938 79.0691 7.53886 77.4072 7.95375C76.9449 8.06974 76.678 8.53286 76.8116 9.01146C76.8582 9.18794 76.9671 9.34806 77.1099 9.46786L77.1211 9.45443ZM2.8746 74.1334C2.90856 73.658 2.54792 73.218 2.05038 73.144C1.56711 73.0821 1.14312 73.4134 1.09788 73.9023C0.966605 75.6244 0.917979 77.393 0.943033 79.1319C0.950471 79.4129 1.08268 79.6613 1.28256 79.829C1.43961 79.9608 1.64178 80.0388 1.84922 80.0525C2.34075 80.0756 2.7332 79.6949 2.71604 79.2225C2.68272 77.5225 2.73733 75.8047 2.86333 74.1468L2.8746 74.1334ZM47.7246 18.9146C47.7907 19.0388 47.8651 19.1241 47.965 19.208C48.2363 19.4356 48.6031 19.4914 48.909 19.3587C50.4244 18.6835 51.9797 18.0188 53.5748 17.3646C54.0168 17.1858 54.2011 16.6762 53.9938 16.2274C53.7864 15.7786 53.2596 15.5656 52.8176 15.7444C51.197 16.4001 49.6162 17.0662 48.0895 17.7549C47.6617 17.9457 47.4917 18.4673 47.7103 18.9026L47.7246 18.9146ZM8.12562 54.8569C8.33318 54.4356 8.1537 53.8956 7.70355 53.6782C7.26468 53.4474 6.74302 53.6052 6.53545 54.0265C5.77815 55.5669 5.09222 57.1672 4.49424 58.7497C4.36862 59.1024 4.49327 59.5047 4.77881 59.7443C4.8502 59.8042 4.92158 59.8641 5.01553 59.8971C5.46268 60.0891 5.97834 59.8805 6.14607 59.4486C6.73577 57.905 7.40213 56.357 8.12562 54.8569ZM44.6659 20.3562C44.4217 19.9223 43.8866 19.7482 43.4732 19.9509C41.9187 20.7308 40.4039 21.5211 38.9291 22.322C38.5186 22.5502 38.3884 23.0823 38.6439 23.5027C38.6927 23.5895 38.7671 23.6748 38.8527 23.7467C39.1383 23.9863 39.5449 24.0527 39.8704 23.8677C41.3197 23.0683 42.8089 22.2794 44.3521 21.513C44.7769 21.2968 44.9213 20.7767 44.6914 20.3548L44.6659 20.3562ZM4.58511 64.2084C4.71002 63.7406 4.43432 63.2573 3.95333 63.1056C3.47235 62.954 2.99951 63.1985 2.87462 63.6663C2.42768 65.3297 2.04913 67.0277 1.75024 68.7466C1.6983 69.0695 1.82522 69.3821 2.08221 69.5978C2.19643 69.6936 2.3332 69.7625 2.47826 69.7926C2.96752 69.9054 3.40879 69.6115 3.49387 69.1332C3.78747 67.4785 4.14645 65.8329 4.57383 64.2218L4.58511 64.2084ZM63.6582 12.7703C63.4877 12.3066 62.9691 12.0548 62.4986 12.2096C60.8404 12.765 59.222 13.331 57.6292 13.8955C57.1729 14.0623 56.9744 14.5599 57.1704 15.0222C57.2252 15.1598 57.3169 15.2825 57.4311 15.3783C57.6738 15.582 58.018 15.6647 58.327 15.5575C59.9055 14.981 61.5126 14.4285 63.1452 13.8745C63.6045 13.7331 63.8286 13.234 63.6326 12.7718L63.6582 12.7703ZM140.881 192.477C139.152 192.102 137.445 191.701 135.738 191.3C135.249 191.187 134.794 191.469 134.708 191.947C134.657 192.27 134.786 192.608 135.029 192.812C135.143 192.907 135.28 192.976 135.425 193.006C137.132 193.408 138.864 193.808 140.608 194.195C141.083 194.295 141.55 194 141.624 193.535C141.697 193.07 141.371 192.59 140.896 192.489L140.881 192.477ZM120.408 187.185C118.701 186.669 117.019 186.151 115.348 185.619C114.867 185.468 114.394 185.712 114.269 186.18C114.181 186.518 114.314 186.881 114.585 187.109C114.671 187.181 114.782 187.251 114.901 187.283C116.586 187.826 118.294 188.343 120.001 188.859C120.468 188.999 120.952 188.741 121.066 188.287C121.179 187.832 120.889 187.337 120.423 187.197L120.408 187.185ZM130.609 190.019C128.885 189.58 127.183 189.114 125.508 188.647C125.03 188.521 124.56 188.791 124.446 189.245C124.369 189.569 124.513 189.919 124.77 190.135C124.87 190.219 124.992 190.276 125.126 190.319C126.827 190.785 128.529 191.251 130.267 191.702C130.745 191.828 131.201 191.546 131.3 191.08C131.4 190.613 131.098 190.132 130.609 190.019ZM90.5125 176.277C88.872 175.565 87.254 174.826 85.6615 174.085C85.2114 173.868 84.6927 174.051 84.5137 174.496C84.3626 174.85 84.4902 175.278 84.79 175.53C84.8471 175.577 84.9185 175.637 84.9982 175.658C86.6049 176.411 88.2342 177.137 89.889 177.861C90.3504 178.065 90.8548 177.87 91.0338 177.425C91.2128 176.979 90.9852 176.468 90.5238 176.264L90.5125 176.277ZM110.316 183.962C108.628 183.393 106.963 182.797 105.308 182.188C104.839 182.023 104.337 182.243 104.198 182.699C104.084 183.038 104.22 183.427 104.491 183.655C104.577 183.727 104.674 183.785 104.782 183.83C106.436 184.439 108.127 185.034 109.815 185.603C110.285 185.768 110.783 185.522 110.897 185.067C111.036 184.612 110.757 184.103 110.29 183.963L110.316 183.962ZM100.343 180.335C98.6717 179.688 97.0372 179.027 95.4026 178.365C94.9442 178.187 94.4398 178.382 94.2608 178.827C94.1352 179.18 94.2598 179.582 94.5454 179.822C94.6168 179.882 94.6881 179.941 94.8076 179.973C96.4565 180.646 98.1053 181.32 99.7767 181.967C100.235 182.145 100.737 181.925 100.89 181.481C101.043 181.037 100.79 180.527 100.332 180.348L100.343 180.335ZM151.225 194.56C149.476 194.238 147.764 193.901 146.052 193.563C145.577 193.463 145.124 193.77 145.051 194.235C144.999 194.558 145.137 194.857 145.38 195.061C145.494 195.157 145.645 195.237 145.801 195.254C147.528 195.603 149.265 195.939 151.014 196.261C151.5 196.349 151.939 196.029 152.012 195.564C152.072 195.088 151.723 194.634 151.248 194.533L151.225 194.56ZM172.031 197.658C170.283 197.45 168.546 197.23 166.809 197.009C166.326 196.947 165.902 197.279 165.856 197.767C165.827 198.063 165.976 198.349 166.191 198.529C166.319 198.637 166.496 198.716 166.666 198.745C168.403 198.965 170.154 199.198 171.914 199.392C172.397 199.454 172.818 199.097 172.852 198.622C172.886 198.146 172.5 197.708 172.017 197.646L172.031 197.658ZM183.328 199.648C183.337 199.174 182.951 198.735 182.47 198.699C180.717 198.556 178.986 198.386 177.255 198.216C176.761 198.168 176.351 198.511 176.331 198.999C176.327 199.293 176.448 199.555 176.662 199.735C176.805 199.854 176.982 199.934 177.178 199.961C178.909 200.131 180.665 200.299 182.419 200.442C182.899 200.479 183.32 200.122 183.328 199.648ZM161.603 196.283C159.849 196.025 158.132 195.752 156.4 195.467C155.914 195.38 155.476 195.699 155.431 196.188C155.39 196.497 155.528 196.797 155.757 196.988C155.885 197.096 156.036 197.177 156.207 197.206C157.938 197.491 159.681 197.762 161.435 198.02C161.933 198.094 162.357 197.763 162.391 197.287C162.425 196.812 162.075 196.358 161.592 196.296L161.603 196.283ZM36.6637 142.247C35.3382 141.043 34.0496 139.824 32.7835 138.579C32.4288 138.19 31.8666 138.222 31.5449 138.547C31.2118 138.886 31.2379 139.435 31.5866 139.773C32.8527 141.019 34.1699 142.262 35.5097 143.477L35.5382 143.501C35.9094 143.813 36.4348 143.796 36.7566 143.47C37.0753 143.119 37.0349 142.558 36.675 142.234L36.6637 142.247ZM165.581 2.12053C166.073 2.14362 166.451 1.75092 166.445 1.26502C166.428 0.792548 166.019 0.380848 165.528 0.357758C163.761 0.318003 162.019 0.276786 160.292 0.247552C159.803 0.249883 159.422 0.617161 159.442 1.11505C159.461 1.38269 159.579 1.61907 159.779 1.78679C159.936 1.91857 160.152 2.00857 160.371 2.00886C162.098 2.0381 163.84 2.07932 165.607 2.11908L165.581 2.12053ZM155.037 0.189641C153.273 0.175302 151.523 0.17295 149.802 0.194557C149.313 0.19689 148.935 0.589584 148.967 1.07403C148.985 1.34168 149.115 1.56462 149.3 1.72036C149.471 1.86411 149.674 1.94213 149.907 1.95441C151.628 1.9328 153.366 1.9486 155.13 1.96294C155.619 1.9606 155.986 1.58134 155.966 1.08345C155.934 0.599006 155.514 0.200748 155.026 0.203084L155.037 0.189641ZM80.8609 171.775C79.2625 170.983 77.6754 170.178 76.1137 169.372C75.6749 169.141 75.1532 169.299 74.9456 169.72C74.7689 170.075 74.874 170.53 75.1881 170.794C75.2452 170.842 75.288 170.878 75.3564 170.912C76.9323 171.73 78.5338 172.547 80.1465 173.351C80.5966 173.568 81.1183 173.411 81.3116 172.977C81.5049 172.544 81.2998 172.005 80.8639 171.8L80.8609 171.775ZM44.7851 149.153C43.706 148.294 42.6525 147.433 41.6246 146.57L40.668 145.767C40.3562 145.414 39.7316 145.463 39.4271 145.825C39.1226 146.188 39.1743 146.736 39.5598 147.059L40.5306 147.874C41.5728 148.748 42.6293 149.635 43.734 150.493C44.1194 150.816 44.6787 150.759 44.9689 150.384C45.2734 150.021 45.1849 149.489 44.7851 149.153ZM29.0671 134.773C27.8319 133.462 26.6477 132.148 25.4891 130.832C25.163 130.467 24.6001 130.384 24.2385 130.699C23.8626 131.002 23.8376 131.553 24.178 131.931C25.3396 133.272 26.5523 134.61 27.8019 135.933C27.8304 135.957 27.859 135.981 27.8875 136.005C28.2302 136.293 28.733 136.302 29.0578 136.002C29.4051 135.675 29.4045 135.125 29.0671 134.773ZM144.573 0.250304C142.815 0.286813 141.057 0.323318 139.339 0.370342C138.853 0.398095 138.501 0.789329 138.532 1.27378C138.562 1.52798 138.677 1.73895 138.863 1.89469C139.034 2.03845 139.25 2.12844 139.48 2.11529C141.198 2.06827 142.942 2.01979 144.689 1.99672C145.177 1.99439 145.541 1.58971 145.51 1.10526C145.479 0.620808 145.047 0.235997 144.559 0.238328L144.573 0.250304ZM62.2369 161.438C60.7226 160.488 59.2197 159.525 57.7423 158.56C57.323 158.277 56.7811 158.372 56.5337 158.782C56.2946 159.154 56.3914 159.648 56.734 159.935C56.7626 159.959 56.7911 159.983 56.8197 160.007C58.3001 160.998 59.803 161.961 61.3571 162.921C61.7876 163.191 62.3266 163.071 62.5627 162.673C62.8101 162.263 62.6705 161.733 62.2399 161.463L62.2369 161.438ZM71.4282 166.837C69.8719 165.966 68.3156 165.096 66.7931 164.185C66.3655 163.94 65.8265 164.061 65.6047 164.47C65.3911 164.841 65.5105 165.307 65.8389 165.583C65.8817 165.619 65.9245 165.655 65.9674 165.691C67.5011 166.588 69.0605 167.484 70.6423 168.354C71.0699 168.598 71.6059 168.452 71.839 168.029C72.0608 167.62 71.8814 167.08 71.4538 166.836L71.4282 166.837ZM176.923 1.6514C176.917 1.16549 176.509 0.75379 176.031 0.742681C174.273 0.664064 172.514 0.585444 170.784 0.530789C170.292 0.507699 169.9 0.888422 169.92 1.38631C169.927 1.66739 170.059 1.91576 170.259 2.08348C170.416 2.21526 170.619 2.29327 170.826 2.307C172.556 2.36166 174.289 2.44174 176.048 2.52036C176.54 2.54345 176.932 2.16273 176.915 1.69026L176.923 1.6514ZM53.3208 155.537C51.8487 154.508 50.4134 153.464 49.0007 152.393C48.5926 152.096 48.0477 152.166 47.7687 152.527C47.5041 152.901 47.5783 153.421 47.9353 153.721L47.9781 153.756C49.4021 154.814 50.8659 155.882 52.3523 156.923C52.7603 157.22 53.3023 157.125 53.5782 156.738C53.8542 156.351 53.7145 155.821 53.3178 155.511L53.3208 155.537Z" fill="#0000FF"/>
</svg>
