<svg width="114" height="38" viewBox="0 0 114 38" fill="none" xmlns="http://www.w3.org/2000/svg">
<path d="M70.5834 4.62136C71.003 5.06844 71.1895 5.53503 71.2029 6.14827C71.1903 6.46589 71.1341 6.75965 71.052 7.0655C71.0417 7.10442 71.0313 7.14334 71.0206 7.18345C70.9025 7.61852 70.7643 8.04688 70.6247 8.47545C70.5409 8.73319 70.458 8.99127 70.3751 9.24932C70.3576 9.30391 70.34 9.3585 70.3219 9.41474C69.7677 11.14 69.2177 12.8671 68.7601 14.6209C68.7358 14.7138 68.711 14.8065 68.6862 14.8993C68.2498 16.531 67.9759 18.1929 67.9291 19.8835C67.9272 19.9416 67.9252 19.9997 67.9232 20.0596C67.8888 21.5345 67.8888 21.5345 68.4979 22.8222C68.7434 23.0276 68.9678 23.0469 69.2848 23.0356C69.7876 22.9611 70.1999 22.6134 70.5834 22.3008C70.6092 22.2799 70.635 22.259 70.6615 22.2375C71.2528 21.7542 71.8125 21.2257 72.2857 20.625C72.3895 20.4934 72.4978 20.3664 72.6067 20.239C73.4058 19.2783 74.0951 18.2227 74.707 17.1344C74.7306 17.0929 74.7542 17.0513 74.7784 17.0085C75.1813 16.2947 75.5301 15.5685 75.8446 14.8119C75.8589 14.7776 75.8731 14.7433 75.8878 14.708C76.1617 14.0491 76.4304 13.388 76.6978 12.7264C76.7187 12.6746 76.7396 12.6228 76.7612 12.5694C77.7777 10.0584 77.7777 10.0584 78.7146 7.51689C78.7418 7.43926 78.7418 7.43926 78.7696 7.36006C78.8578 7.10797 78.9454 6.85566 79.0318 6.60292C79.0636 6.51117 79.0954 6.41942 79.1273 6.32768C79.141 6.28669 79.1548 6.2457 79.1689 6.20346C79.3135 5.78999 79.5212 5.31761 79.9208 5.09534C80.2215 4.99823 80.496 5.05165 80.774 5.19013C81.1984 5.44162 81.473 5.82147 81.6242 6.28917C81.7497 6.86088 81.6795 7.35356 81.5294 7.9094C81.5146 7.96531 81.4998 8.02122 81.4845 8.07882C81.3384 8.62697 81.1842 9.17283 81.0288 9.71843C79.1555 16.1576 79.1555 16.1576 79.0588 24.3833C79.2471 24.7057 79.4625 24.8892 79.826 25.0025C80.5594 25.0976 81.2454 24.6999 81.8167 24.2796C82.2341 23.9556 82.6421 23.6207 83.0098 23.2406C83.0992 23.1512 83.1926 23.0697 83.289 22.988C83.4486 22.8508 83.5839 22.703 83.7199 22.5426C83.8159 22.4334 83.9171 22.3317 84.0207 22.2297C84.2126 22.0397 84.3908 21.8427 84.5658 21.6372C84.6087 21.5873 84.6516 21.5375 84.6945 21.4876C84.8174 21.3448 84.9398 21.2016 85.0621 21.0583C85.1297 20.9794 85.1975 20.9008 85.2655 20.8222C85.5913 20.4437 85.896 20.0509 86.1964 19.652C86.2676 19.5577 86.3392 19.4638 86.411 19.3701C87.0494 18.5327 87.645 17.6695 88.1681 16.7552C88.1882 16.7202 88.2083 16.6851 88.229 16.6489C88.3701 16.4018 88.5068 16.1524 88.642 15.9021C88.6635 15.8626 88.685 15.8232 88.7071 15.7825C90.0107 13.3783 90.8613 10.7692 91.7558 8.19412C91.783 8.11586 91.8103 8.03764 91.8378 7.95945C91.9088 7.75659 91.9779 7.55331 92.0443 7.34891C92.0584 7.30633 92.0726 7.26375 92.0872 7.21988C92.1139 7.13917 92.1401 7.05826 92.1656 6.97712C92.2624 6.68873 92.4003 6.429 92.6718 6.27245C92.8822 6.18371 93.1124 6.20164 93.3344 6.23289C93.6543 6.36314 93.8513 6.58923 93.998 6.89646C94.1468 7.34276 94.0313 7.87741 93.95 8.3295C93.9296 8.44892 93.9092 8.56833 93.8888 8.68774C93.8725 8.78158 93.8561 8.87542 93.8398 8.96925C93.7893 9.26049 93.7409 9.55206 93.6925 9.84364C93.6872 9.8758 93.6818 9.90796 93.6763 9.9411C93.5781 10.5341 93.4953 11.128 93.4263 11.7251C93.4216 11.7646 93.417 11.8041 93.4122 11.8449C93.1762 13.2088 93.1762 13.2088 93.4766 14.4801C93.6396 14.4715 93.6396 14.4715 93.8084 14.4327C93.8611 14.3457 93.8611 14.3457 93.9032 14.2431C93.9459 14.1825 93.9903 14.1231 94.0359 14.0647C94.0624 14.0306 94.0889 13.9966 94.1162 13.9616C94.1589 13.9074 94.1589 13.9074 94.2024 13.8521C94.2318 13.8145 94.2613 13.7769 94.2916 13.7381C94.5628 13.3926 94.8396 13.0517 95.1177 12.7116C95.234 12.569 95.3488 12.4252 95.4634 12.2813C95.5404 12.1849 95.6176 12.0886 95.6949 11.9925C95.9211 11.7109 96.1458 11.4287 96.3649 11.1415C96.5965 10.8387 96.8365 10.5432 97.0777 10.248C97.1901 10.1105 97.3008 9.97171 97.4106 9.83216C98.2582 8.77091 99.1996 7.6957 100.302 6.89646C100.35 6.86029 100.398 6.82411 100.448 6.78685C101.079 6.32957 101.775 5.95874 102.53 5.75891C102.585 5.74388 102.64 5.72885 102.697 5.71336C103.75 5.47207 105.091 5.49023 106.041 6.0544C106.422 6.33626 106.576 6.82636 106.653 7.27564C106.755 8.26053 106.564 9.27609 106.439 10.2513C106.241 11.8006 106.063 13.3359 106.073 14.9008C106.073 14.9449 106.073 14.989 106.073 15.0344C105.947 18.5899 105.947 18.5899 107.222 21.732C107.482 21.977 107.726 22.0869 108.084 22.129C109.473 21.9923 110.813 20.5734 111.68 19.5621C111.772 19.4577 111.865 19.3558 111.959 19.2542C112.15 19.0485 112.335 18.8409 112.51 18.6215C113.031 17.9744 113.031 17.9744 113.289 17.8454C113.621 17.8127 113.621 17.8127 113.81 17.9431C113.929 18.1177 113.918 18.2058 113.905 18.4142C113.567 19.936 112.365 21.4883 111.346 22.6326C111.323 22.6581 111.3 22.6836 111.277 22.7099C110.251 23.863 108.908 25.0327 107.306 25.1565C106.596 25.1712 106.054 24.9939 105.536 24.5014C105.498 24.4634 105.46 24.4254 105.421 24.3863C105.385 24.3512 105.35 24.3161 105.313 24.28C103.627 22.5202 103.318 19.6375 103.087 17.3329C103.083 17.2937 103.079 17.2544 103.075 17.214C103.063 17.0993 103.052 16.9846 103.041 16.8698C103.037 16.8212 103.037 16.8212 103.032 16.7716C103.021 16.6556 103.012 16.5396 103.004 16.4234C102.999 16.3666 102.995 16.3097 102.991 16.2511C102.95 15.6532 102.951 15.0563 102.954 14.4573C102.955 14.2746 102.955 14.0918 102.956 13.909C102.957 13.3901 102.959 12.8711 102.961 12.3522C102.962 12.0331 102.963 11.7141 102.963 11.395C102.964 11.2741 102.964 11.1531 102.965 11.0321C102.966 10.8633 102.966 10.6945 102.966 10.5256C102.967 10.4515 102.967 10.4515 102.967 10.3759C102.967 10.0861 102.935 9.83132 102.861 9.55074C102.496 9.45319 102.206 9.58581 101.882 9.76125C100.667 10.5041 99.5111 11.5948 98.5956 12.679C98.5238 12.7619 98.4518 12.8446 98.3798 12.9273C97.9721 13.3959 97.5656 13.8657 97.1799 14.3527C97.1051 14.447 97.0299 14.5407 96.9541 14.6342C95.9387 15.8883 94.9967 17.2066 94.1876 18.6037C94.1521 18.6649 94.1522 18.6649 94.116 18.7273C93.0791 20.5263 92.2569 22.4062 91.5402 24.3534C91.1607 25.3783 91.1607 25.3783 90.6801 25.6186C90.1896 25.6633 89.7011 25.6073 89.3026 25.2957C89.0971 25.1174 89.0173 24.8702 88.9973 24.6066C88.9561 23.0511 89.3097 21.4632 89.5643 19.9361C89.5724 19.8875 89.5804 19.8389 89.5886 19.7888C89.6036 19.6982 89.6188 19.6075 89.6342 19.517C89.6719 19.288 89.6926 19.0728 89.6848 18.8407C89.6379 18.8251 89.5909 18.8095 89.5426 18.7933C89.2972 19.0157 89.1173 19.2829 88.9264 19.5517C88.5392 20.0953 88.1408 20.6275 87.729 21.1526C87.5936 21.326 87.4602 21.5008 87.3267 21.6757C87.3013 21.709 87.2759 21.7423 87.2497 21.7766C87.2001 21.8415 87.1506 21.9064 87.1011 21.9714C86.1287 23.2451 85.0991 24.5483 83.8548 25.5712C83.8306 25.5914 83.8063 25.6116 83.7813 25.6324C82.5457 26.657 80.9782 27.7138 79.3022 27.6029C78.5969 27.533 77.9581 27.2345 77.4776 26.7101C76.2363 25.1782 76.093 23.2272 76.0554 21.3347C76.053 21.2146 76.0502 21.0945 76.0475 20.9744C76.0465 20.9191 76.0465 20.9191 76.0456 20.8628C76.0449 20.6751 76.0449 20.6751 75.9868 20.4997C75.8347 20.5139 75.7652 20.5318 75.655 20.6407C75.6237 20.6822 75.5924 20.7236 75.5602 20.7663C75.5235 20.8133 75.4869 20.8602 75.4491 20.9086C75.4191 20.9472 75.4191 20.9472 75.3886 20.9864C75.2685 21.137 75.1416 21.2817 75.0151 21.4269C74.9887 21.4573 74.9623 21.4876 74.9351 21.5189C74.7537 21.7271 74.5703 21.9334 74.3845 22.1377C74.3275 22.2011 74.2707 22.2648 74.2154 22.3298C73.9679 22.6192 73.7022 22.8895 73.4336 23.159C73.3542 23.2389 73.2754 23.3192 73.1965 23.3995C72.8608 23.7385 72.5095 24.0411 72.1288 24.3284C72.0022 24.4248 71.8781 24.5243 71.7536 24.6233C70.7747 25.3812 69.6835 26.0218 68.4031 25.903C67.8082 25.8183 67.2867 25.5387 66.839 25.1447C66.7856 25.0988 66.7856 25.0988 66.7312 25.0521C66.1052 24.4752 65.8028 23.6304 65.6422 22.8133C65.635 22.7771 65.6279 22.7409 65.6205 22.7037C65.4591 21.8016 65.447 20.891 65.4494 19.9773C65.4496 19.8793 65.4497 19.7813 65.4497 19.6833C65.4505 18.5972 65.4953 17.5183 65.5894 16.436C65.6144 16.1477 65.6343 15.859 65.654 15.5703C65.6227 15.5703 65.5915 15.5703 65.5592 15.5703C65.5011 15.6428 65.5012 15.6428 65.4456 15.7389C65.4231 15.7754 65.4007 15.8119 65.3776 15.8495C65.3535 15.8893 65.3294 15.9292 65.3045 15.9702C65.0269 16.4186 64.7313 16.8498 64.4217 17.2766C64.3954 17.313 64.3691 17.3494 64.342 17.387C63.9588 17.9174 63.5621 18.4338 63.1419 18.9355C63.1058 18.9787 63.1059 18.9787 63.069 19.0227C62.555 19.6346 62.0115 20.2124 61.4475 20.7781C61.424 20.8017 61.4005 20.8254 61.3763 20.8497C61.1045 21.1226 60.8292 21.3883 60.5351 21.6372C60.485 21.6805 60.4349 21.7237 60.3849 21.767C60.0328 22.0672 59.6738 22.3561 59.3027 22.6326C59.2701 22.6569 59.2375 22.6812 59.204 22.7063C58.7581 23.0379 58.3085 23.3531 57.8245 23.6267C57.767 23.6592 57.7097 23.6922 57.6526 23.7254C56.7605 24.245 55.8116 24.5408 54.7803 24.2961C54.2599 24.1368 53.8497 23.8742 53.4728 23.4857C53.4285 23.4421 53.4285 23.4421 53.3833 23.3976C52.3394 22.2997 52.2509 20.6705 52.2766 19.2429C52.3411 16.7672 53.504 14.7032 54.8053 12.6767C54.8993 12.5295 54.9924 12.3819 55.0854 12.2341C55.7086 11.2461 56.391 10.3542 57.1855 9.49927C57.2504 9.42842 57.3152 9.35743 57.3774 9.28425C57.6445 8.97028 57.9361 8.68079 58.2274 8.38953C58.3186 8.29828 58.4094 8.20665 58.5001 8.11501C58.8318 7.7818 59.1667 7.46802 59.5397 7.18084C59.5707 7.15676 59.6017 7.13268 59.6337 7.10786C60.7416 6.25997 61.9664 5.54248 63.2117 4.91859C63.3179 4.86519 63.4234 4.81058 63.5287 4.75559C64.4467 4.28806 65.4904 3.96809 66.5072 3.81559C66.5397 3.81025 66.5723 3.8049 66.6058 3.79939C68.0161 3.57078 69.4696 3.63606 70.5834 4.62136ZM61.5452 9.19526C61.5036 9.23631 61.4619 9.27736 61.4189 9.31965C61.1352 9.60304 60.8803 9.90145 60.6299 10.2143C60.5866 10.2654 60.5431 10.3162 60.4991 10.3667C60.137 10.7832 59.808 11.2228 59.4802 11.6667C59.4083 11.7639 59.3358 11.8607 59.2629 11.9573C57.7884 13.9232 55.9406 16.6809 56.1271 19.2673C56.1787 19.5409 56.2513 19.7829 56.4588 19.9783C56.6886 20.1087 56.9258 20.0968 57.1785 20.0379C57.935 19.7745 58.5393 19.3149 59.141 18.7963C59.2246 18.7248 59.3089 18.6544 59.3938 18.5845C59.8771 18.1835 60.3186 17.743 60.7607 17.2977C60.8883 17.1693 61.0162 17.0413 61.1441 16.9133C61.2264 16.8308 61.3087 16.7482 61.391 16.6656C61.4287 16.6279 61.4664 16.5902 61.5052 16.5513C61.7282 16.3263 61.9402 16.0949 62.1466 15.8547C62.2155 15.7785 62.2846 15.7024 62.354 15.6266C62.5351 15.4257 62.7079 15.2196 62.8779 15.0093C62.969 14.8966 63.0614 14.785 63.1542 14.6738C66.3782 10.8082 66.3782 10.8082 67.9765 6.18549C67.9036 5.99034 67.8291 5.8607 67.6448 5.75891C65.69 5.30373 62.8019 7.95034 61.5452 9.19526Z" fill="#191A23"/>
<path d="M34.561 5.47452C34.8741 5.8438 34.9184 6.31079 34.9135 6.77796C34.9131 6.82788 34.9126 6.8778 34.9121 6.92923C34.8678 8.90731 33.6366 11.019 32.3807 12.4894C32.338 12.5408 32.2954 12.5923 32.2528 12.6438C31.8169 13.1666 31.3461 13.6698 30.8247 14.1087C30.74 14.1803 30.657 14.2532 30.5744 14.3272C29.5086 15.2757 28.3239 16.074 27.0721 16.7552C27.0413 16.7721 27.0105 16.789 26.9787 16.8065C26.3272 17.1606 25.6227 17.3944 24.9116 17.5971C24.6496 17.692 24.4588 17.804 24.3349 18.0587C24.1097 18.5704 24.108 19.1429 24.0801 19.6939C24.0782 19.7316 24.0762 19.7694 24.0741 19.8082C23.8248 22.461 23.8248 22.461 24.6548 24.8603C24.9303 25.1568 25.252 25.3077 25.6565 25.3372C26.1285 25.3269 26.5642 25.1733 26.9773 24.9551C27.0279 24.9288 27.0784 24.9025 27.1304 24.8754C27.7805 24.5214 28.3562 24.0566 28.9206 23.5805C28.9462 23.559 28.9717 23.5375 28.998 23.5154C29.3456 23.222 29.6862 22.9222 30.0199 22.6131C30.145 22.4977 30.2717 22.3843 30.3989 22.2712C30.5863 22.1032 30.7647 21.9286 30.9399 21.7479C31.0313 21.6589 31.1239 21.5763 31.2208 21.4935C31.4587 21.2859 31.681 21.0639 31.9039 20.8405C31.9479 20.7966 31.9918 20.7528 32.037 20.7076C32.1294 20.6153 32.2217 20.5229 32.3139 20.4304C32.4311 20.313 32.5485 20.1957 32.666 20.0785C32.7795 19.9653 32.8927 19.8519 33.0059 19.7385C33.0685 19.6761 33.0685 19.6761 33.1322 19.6125C33.3399 19.404 33.5412 19.193 33.7322 18.969C33.844 18.8406 33.9652 18.7225 34.087 18.6037C34.2692 18.4238 34.4441 18.2418 34.6101 18.0466C34.7382 17.9001 34.8721 17.7591 35.0054 17.6173C35.1918 17.4183 35.3713 17.2173 35.5415 17.0041C36.1651 16.2275 36.1651 16.2275 36.5043 16.1705C36.6775 16.1671 36.7613 16.1661 36.9042 16.2724C37.071 16.5059 37.0484 16.7647 37.0257 17.0396C36.9285 17.425 36.7649 17.7776 36.5784 18.1268C36.5537 18.1735 36.5289 18.2201 36.5035 18.2682C36.0973 19.0249 35.6429 19.7304 35.1102 20.4036C34.9855 20.5629 34.8653 20.7254 34.7447 20.8877C34.3107 21.4684 33.8572 22.0329 33.3986 22.5942C33.3367 22.6701 33.2749 22.7461 33.2131 22.8222C33.0031 23.0802 32.7896 23.3351 32.5741 23.5885C32.4386 23.7483 32.3052 23.9095 32.1733 24.0723C31.3862 25.037 30.5414 26.0035 29.5842 26.8036C29.5414 26.8411 29.4987 26.8786 29.4546 26.9173C28.0528 28.1406 26.3932 29.2438 24.4652 29.1261C23.3716 29.0262 22.4175 28.5521 21.6955 27.7206C21.1207 27.0171 20.8415 26.1615 20.6675 25.2809C20.66 25.2434 20.6524 25.2059 20.6447 25.1672C20.5045 24.4169 20.466 23.6639 20.469 22.9021C20.4691 22.8586 20.4691 22.815 20.4692 22.7701C20.4718 21.7081 20.5613 20.6581 20.6688 19.6024C20.6722 19.569 20.6756 19.5355 20.6791 19.501C20.6951 19.3439 20.7116 19.187 20.729 19.0301C20.7349 18.9757 20.7407 18.9214 20.7467 18.8654C20.752 18.818 20.7573 18.7706 20.7628 18.7218C20.7756 18.5975 20.7756 18.5975 20.7208 18.4615C20.4305 18.3626 20.1542 18.3542 19.8499 18.349C18.4734 18.304 18.4734 18.304 18.0665 17.8928C17.8509 17.6137 17.7601 17.3669 17.7668 17.0133C17.7821 16.8974 17.7821 16.8974 17.868 16.7552C18.2915 16.4895 18.9018 16.529 19.3914 16.4933C19.9926 16.4487 20.5896 16.3874 21.0376 15.9452C21.1651 15.785 21.2586 15.6214 21.352 15.4397C21.3703 15.4045 21.3887 15.3693 21.4076 15.3329C21.5833 14.9915 21.7397 14.6424 21.8923 14.2901C21.973 14.1041 22.0551 13.9188 22.1372 13.7334C22.1619 13.6776 22.1619 13.6776 22.1871 13.6207C23.1932 11.3549 24.5185 9.15579 26.456 7.56003C26.4934 7.52867 26.4934 7.52867 26.5317 7.49668C27.9963 6.27286 29.8705 4.92241 31.8119 4.66875C31.8762 4.66014 31.8762 4.66014 31.9417 4.65135C32.9589 4.54087 33.8045 4.7773 34.561 5.47452ZM27.3012 9.97491C27.0434 10.2429 26.8178 10.531 26.5981 10.8305C26.5785 10.8567 26.5589 10.8829 26.5387 10.91C25.7453 11.9705 24.5029 13.7034 24.6548 15.0963C24.7118 15.1812 24.7118 15.1812 24.797 15.2385C25.1336 15.283 25.4544 15.1024 25.745 14.9571C25.8167 14.9219 25.8167 14.9219 25.8899 14.886C27.4059 14.1322 28.9103 13.1146 30.022 11.8263C30.1316 11.7014 30.2461 11.5818 30.3611 11.4618C30.7121 11.0948 31.0344 10.7159 31.3379 10.3091C31.3581 10.2826 31.3783 10.2561 31.3992 10.2289C31.9699 9.4797 32.6764 8.40123 32.5703 7.41783C32.5069 7.21592 32.3998 7.10027 32.2296 6.97348C30.7185 6.226 28.2182 9.04221 27.3012 9.97491Z" fill="#191A23"/>
<path d="M52.4785 4.03425C52.9264 4.23517 53.1746 4.58197 53.363 5.0235C53.9852 6.68524 53.5527 8.14844 52.8536 9.68997C52.3603 10.7704 51.8307 11.8226 51.2214 12.843C51.1263 13.0039 51.0359 13.1671 50.9459 13.3307C50.7181 13.7415 50.4711 14.1408 50.2265 14.5416C50.014 14.8897 49.8044 15.2392 49.598 15.591C49.3278 16.0506 49.0493 16.5046 48.7669 16.9568C48.6818 17.093 48.597 17.2293 48.5121 17.3657C48.1422 17.9593 47.7685 18.5504 47.3922 19.14C47.3124 19.2651 47.233 19.3905 47.1537 19.516C46.1638 21.0801 45.1433 22.6285 44.088 24.1493C44.0616 24.1873 44.0353 24.2252 44.0082 24.2644C43.4668 25.0439 42.9204 25.8198 42.3343 26.5666C42.3018 26.6083 42.2692 26.6501 42.2358 26.6931C41.1998 28.0084 41.1998 28.0084 40.5509 28.1011C40.1921 28.1174 39.8337 28.0473 39.5433 27.8256C39.1361 27.4 39.1047 26.7844 39.1022 26.2282C39.1018 26.1808 39.1014 26.1334 39.101 26.0846C39.0998 25.9275 39.0988 25.7705 39.0979 25.6135C39.097 25.5025 39.0962 25.3916 39.0953 25.2807C39.0934 25.0455 39.0917 24.8102 39.0901 24.5749C39.0863 24.0247 39.0816 23.4744 39.077 22.9241C39.076 22.8034 39.075 22.6826 39.074 22.5619C39.063 21.2423 39.0469 19.923 39.0164 18.6037C39.0149 18.5394 39.0135 18.475 39.012 18.4106C38.9616 16.1968 38.8995 13.9841 38.707 11.7773C38.7038 11.7404 38.7006 11.7034 38.6973 11.6654C38.6656 11.3001 38.6334 10.935 38.5986 10.57C38.5343 9.89088 38.482 9.21339 38.4758 8.53094C38.4749 8.43485 38.4732 8.33877 38.4716 8.24269C38.4724 7.65792 38.5817 7.0675 38.8653 6.54986C38.89 6.50301 38.89 6.50301 38.9152 6.45521C38.9635 6.3646 39.0133 6.27493 39.0638 6.18549C39.0907 6.13759 39.1177 6.08968 39.1455 6.04033C39.4551 5.52499 39.8944 4.96697 40.4911 4.77947C40.777 4.72857 40.9892 4.76848 41.2441 4.90574C41.7252 5.45009 41.6396 6.58121 41.6683 7.27014C41.6735 7.39324 41.6791 7.5163 41.6849 7.63936C41.7595 9.30348 41.772 10.9674 41.7687 12.6329C41.7682 12.9131 41.7681 13.1933 41.7679 13.4735C41.7674 14.1823 41.7665 14.8911 41.7655 15.5999C41.7644 16.3663 41.7635 17.1327 41.763 17.8991C41.7628 18.1758 41.7625 18.4525 41.7619 18.7292C41.7594 20.0154 41.7695 21.2996 41.8129 22.5852C41.8598 22.6008 41.9067 22.6165 41.9551 22.6326C42.12 22.4798 42.2448 22.3085 42.3698 22.123C42.403 22.0742 42.403 22.0742 42.437 22.0243C42.5136 21.9113 42.5899 21.798 42.666 21.6846C42.695 21.6417 42.7239 21.5989 42.7536 21.5547C44.3187 19.231 45.7146 16.8123 47.0267 14.3379C47.0524 14.2895 47.0781 14.2411 47.1046 14.1913C47.4087 13.6185 47.6987 13.0407 47.9759 12.4544C48.078 12.2387 48.1814 12.0236 48.2858 11.809C48.3005 11.7788 48.3152 11.7487 48.3303 11.7176C48.3451 11.6871 48.36 11.6566 48.3752 11.6252C48.7139 10.9289 49.046 10.2299 49.3685 9.52595C49.419 9.41559 49.4697 9.30528 49.5206 9.19505C49.9816 8.19382 50.389 7.17593 50.7817 6.14636C51.1861 5.08732 51.1861 5.08732 51.4258 4.62432C51.4417 4.59294 51.4577 4.56157 51.4741 4.52924C51.6894 4.13406 52.022 3.89589 52.4785 4.03425Z" fill="#191A23"/>
<path d="M9.06092 1.2324C9.30291 1.53489 9.28267 1.82717 9.25051 2.20406C9.19907 2.4509 9.12452 2.68771 9.04611 2.92688C9.02427 2.99606 9.00251 3.06528 8.98084 3.13451C8.87691 3.46467 8.76847 3.7933 8.65896 4.12164C8.61905 4.24177 8.57922 4.36192 8.53954 4.48212C8.52919 4.51345 8.51884 4.54477 8.50818 4.57704C8.23222 5.41714 8.00088 6.27052 7.76366 7.12214C7.71732 7.28848 7.67095 7.4548 7.62454 7.62113C7.61067 7.67082 7.61067 7.67082 7.59653 7.72152C7.39981 8.42597 7.19436 9.12774 6.98726 9.8292C5.80443 13.8433 4.72528 17.9004 3.83233 21.9897C3.82042 22.044 3.80852 22.0982 3.79625 22.1542C3.76361 22.3036 3.73146 22.4531 3.69958 22.6028C3.6903 22.6455 3.68103 22.6883 3.67147 22.7323C3.62812 22.9398 3.59966 23.1301 3.61016 23.3435C3.77359 23.3997 3.8697 23.3817 4.03242 23.3285C4.07909 23.3136 4.12576 23.2986 4.17384 23.2832C4.24995 23.258 4.24995 23.258 4.3276 23.2323C4.38099 23.2151 4.43438 23.1978 4.48939 23.1801C4.60495 23.1429 4.72045 23.1054 4.8359 23.0678C5.14324 22.9676 5.4513 22.8697 5.75936 22.7718C5.79062 22.7618 5.82189 22.7519 5.85411 22.7416C7.42616 22.2418 9.01336 21.7998 10.625 21.4476C10.6905 21.4333 10.6905 21.4333 10.7572 21.4186C17.2885 19.9878 17.2885 19.9878 18.3035 20.5945C18.5113 20.7788 18.7042 20.9954 18.7477 21.2771C18.753 21.4798 18.7541 21.6004 18.6412 21.7735C18.2602 22.0326 17.7956 22.1333 17.3561 22.2526C17.2914 22.2705 17.2267 22.2883 17.162 22.3062C17.0245 22.3441 16.887 22.3819 16.7495 22.4196C16.3848 22.5197 16.0205 22.621 15.6563 22.7225C15.6196 22.7328 15.5829 22.743 15.5452 22.7535C14.4981 23.0458 13.4576 23.3593 12.4192 23.6809C12.2899 23.7209 12.1605 23.7608 12.0312 23.8006C10.3937 24.3062 8.77353 24.8648 7.15334 25.4229C6.33135 25.7059 5.5078 25.9825 4.67957 26.2467C4.63832 26.2599 4.59707 26.2731 4.55456 26.2868C3.92128 26.4896 3.36246 26.6307 2.69182 26.6288C2.63769 26.6296 2.58355 26.6303 2.52778 26.6311C1.76013 26.6316 1.1535 26.4156 0.596499 25.8845C0.144776 25.397 0.0638878 24.7816 0.0803064 24.1428C0.202292 21.8666 0.94993 19.5696 1.57082 17.3923C2.20077 15.1832 2.78319 12.9627 3.3465 10.7357C3.35676 10.6951 3.36702 10.6546 3.37759 10.6128C3.66207 9.48833 3.66207 9.48833 3.94009 8.36227C4.32801 6.7726 4.77752 5.19837 5.27517 3.63951C5.30016 3.56122 5.32497 3.48288 5.34958 3.40447C5.47363 3.01103 5.61184 2.63305 5.79509 2.26294C5.81786 2.21688 5.81786 2.21688 5.8411 2.16989C6.11735 1.63386 6.56884 1.21657 7.13556 1.01041C7.7712 0.812425 8.52425 0.785184 9.06092 1.2324Z" fill="#191A23"/>
<path d="M83.3335 32.7757C84.9132 32.7757 86.493 32.7757 88.1207 32.7757C88.1207 33.4327 88.1207 34.0896 88.1207 34.7664C87.8704 34.7664 87.6201 34.7664 87.3623 34.7664C87.3611 34.6934 87.3598 34.6203 87.3586 34.545C87.3559 34.449 87.3532 34.3529 87.3504 34.2569C87.3498 34.2088 87.3491 34.1606 87.3484 34.111C87.3469 34.0646 87.3453 34.0181 87.3438 33.9703C87.3423 33.9063 87.3423 33.9063 87.3408 33.8409C87.3047 33.6774 87.2656 33.6275 87.1253 33.5341C86.9707 33.5054 86.8179 33.5054 86.6609 33.5052C86.5935 33.504 86.5935 33.504 86.5247 33.5028C86.3812 33.5005 86.2378 33.4995 86.0944 33.4985C85.9971 33.4972 85.8997 33.4958 85.8024 33.4943C85.564 33.4906 85.3256 33.4887 85.0872 33.4867C85.0872 33.9872 85.0872 34.4877 85.0872 35.0034C85.269 34.9976 85.269 34.9976 85.4545 34.9916C85.4924 34.9908 85.5302 34.9901 85.5693 34.9893C85.7267 34.9818 85.8309 34.9659 85.9626 34.8775C86.0544 34.7369 86.0634 34.6372 86.0707 34.4702C86.0746 34.3803 86.0785 34.2903 86.0825 34.1977C86.3015 34.1977 86.5205 34.1977 86.7461 34.1977C86.7461 34.9641 86.7461 35.7305 86.7461 36.5202C86.5271 36.5202 86.3082 36.5202 86.0825 36.5202C86.0764 36.3659 86.0702 36.2116 86.064 36.0573C86.0452 35.8785 86.0452 35.8785 85.8455 35.7144C85.5953 35.6987 85.345 35.6831 85.0872 35.667C85.0872 36.1988 85.0872 36.7306 85.0872 37.2785C85.3808 37.2761 85.6742 37.2731 85.9678 37.2687C86.0676 37.2673 86.1675 37.2663 86.2674 37.2657C86.4109 37.2647 86.5544 37.2625 86.698 37.26C86.7649 37.2599 86.7649 37.2599 86.8332 37.2598C87.0791 37.2555 87.0791 37.2555 87.2953 37.1486C87.3711 37.0275 87.3875 36.9577 87.3912 36.8157C87.3927 36.7735 87.3942 36.7313 87.3958 36.6879C87.3965 36.6443 87.3971 36.6007 87.3978 36.5557C87.3999 36.4892 87.3999 36.4892 87.4021 36.4213C87.4054 36.3121 87.4077 36.2028 87.4097 36.0936C87.6599 36.0936 87.9102 36.0936 88.168 36.0936C88.168 36.7192 88.168 37.3449 88.168 37.9895C86.5726 37.9895 84.9772 37.9895 83.3335 37.9895C83.3335 37.7549 83.3335 37.5203 83.3335 37.2785C83.386 37.2773 83.4385 37.2761 83.4927 37.2748C83.562 37.2722 83.6314 37.2694 83.7008 37.2667C83.7354 37.266 83.77 37.2653 83.8056 37.2646C83.9615 37.2576 84.0689 37.2478 84.1966 37.1547C84.3102 37.0031 84.3055 36.9069 84.3059 36.7184C84.3063 36.6864 84.3066 36.6543 84.307 36.6212C84.3078 36.5154 84.3072 36.4097 84.3066 36.3039C84.3067 36.2302 84.3069 36.1566 84.3071 36.0829C84.3074 35.9286 84.307 35.7744 84.3061 35.6201C84.3051 35.4225 84.3057 35.2249 84.3068 35.0272C84.3075 34.8751 84.3073 34.7231 84.3068 34.571C84.3067 34.4981 84.3068 34.4253 84.3073 34.3524C84.3077 34.2505 84.307 34.1487 84.3059 34.0468C84.3058 33.9888 84.3056 33.9309 84.3055 33.8712C84.2767 33.6947 84.235 33.6385 84.0918 33.5341C83.956 33.5128 83.8368 33.5012 83.7008 33.4985C83.6655 33.4971 83.6302 33.4957 83.5938 33.4943C83.507 33.4909 83.4202 33.4887 83.3335 33.4867C83.3335 33.2521 83.3335 33.0175 83.3335 32.7757Z" fill="#191A23"/>
<path d="M76.4608 32.7757C77.1803 32.7757 77.8998 32.7757 78.6411 32.7757C78.6411 33.0103 78.6411 33.245 78.6411 33.4867C78.5668 33.4906 78.4925 33.4945 78.4159 33.4985C78.2675 33.5064 78.188 33.5193 78.0658 33.6056C77.941 33.7724 77.9537 33.9259 77.959 34.1258C77.9592 34.1645 77.9595 34.2031 77.9598 34.243C77.9609 34.3661 77.9632 34.4892 77.9656 34.6124C77.9666 34.696 77.9675 34.7796 77.9682 34.8633C77.9703 35.068 77.9736 35.2727 77.9775 35.4774C78.1288 35.3275 78.2798 35.1773 78.4307 35.0271C78.4732 34.9851 78.5156 34.9431 78.5593 34.8997C78.7765 34.6833 78.9866 34.4646 79.1862 34.2318C79.2817 34.1222 79.3841 34.0205 79.4883 33.9192C79.6283 33.7875 79.6283 33.7875 79.7312 33.6289C79.5481 33.519 79.4457 33.5204 79.2098 33.4867C79.2098 33.2521 79.2098 33.0175 79.2098 32.7757C79.9137 32.7757 80.6176 32.7757 81.3428 32.7757C81.3428 33.0103 81.3428 33.245 81.3428 33.4867C81.2269 33.4852 81.2269 33.4852 81.1087 33.4837C80.8115 33.5104 80.685 33.6271 80.4911 33.8446C80.4593 33.8829 80.4275 33.9212 80.3948 33.9607C80.3435 34.02 80.2922 34.0793 80.2407 34.1384C80.215 34.1685 80.1893 34.1985 80.1628 34.2295C79.9348 34.4816 79.6888 34.7174 79.4468 34.956C79.6405 35.2584 79.8514 35.5454 80.0678 35.8316C80.3351 36.1858 80.594 36.5458 80.8525 36.9063C80.8987 36.97 80.9465 37.0325 80.9953 37.0942C81.0584 37.1837 81.0583 37.1837 81.0583 37.2785C81.246 37.2785 81.4338 37.2785 81.6271 37.2785C81.6271 37.5131 81.6271 37.7478 81.6271 37.9895C80.8764 37.9895 80.1256 37.9895 79.352 37.9895C79.352 37.7549 79.352 37.5203 79.352 37.2785C79.4708 37.2724 79.5896 37.2662 79.7084 37.26C79.8336 37.241 79.8336 37.241 79.9125 37.1341C79.9309 37.1036 79.9493 37.073 79.9682 37.0415C79.9411 37.007 79.9141 36.9724 79.8862 36.9367C79.5387 36.4901 79.2073 36.0324 78.8781 35.5722C78.7984 35.6404 78.7188 35.7086 78.6394 35.7769C78.5818 35.8262 78.5239 35.8751 78.4656 35.9234C78.123 36.2047 78.123 36.2047 77.9344 36.5925C77.9286 36.8134 77.9246 36.9706 78.0597 37.1519C78.2421 37.2865 78.4186 37.2668 78.6411 37.2785C78.6411 37.5131 78.6411 37.7478 78.6411 37.9895C77.9216 37.9895 77.2021 37.9895 76.4608 37.9895C76.4608 37.7549 76.4608 37.5203 76.4608 37.2785C76.5722 37.2727 76.5722 37.2727 76.6859 37.2667C76.8376 37.2587 76.9136 37.2472 77.0356 37.1547C77.1543 37.0033 77.1484 36.9096 77.1489 36.7184C77.1492 36.6864 77.1495 36.6543 77.1499 36.6212C77.1507 36.5154 77.1502 36.4097 77.1495 36.3039C77.1496 36.2302 77.1498 36.1566 77.1501 36.0829C77.1503 35.9286 77.1499 35.7744 77.149 35.6201C77.148 35.4225 77.1486 35.2249 77.1497 35.0272C77.1504 34.8751 77.1502 34.7231 77.1497 34.571C77.1496 34.4981 77.1497 34.4253 77.1502 34.3524C77.1507 34.2505 77.1499 34.1487 77.1489 34.0468C77.1487 33.9888 77.1486 33.9309 77.1484 33.8712C77.1198 33.6958 77.0747 33.6401 76.9347 33.5341C76.7754 33.4964 76.6253 33.4954 76.4608 33.4867C76.4608 33.2521 76.4608 33.0175 76.4608 32.7757Z" fill="#191A23"/>
<path d="M90.3957 32.7757C90.7806 32.7725 91.1655 32.7699 91.5504 32.7683C91.7291 32.7676 91.9079 32.7666 92.0867 32.765C92.2597 32.7634 92.4327 32.7626 92.6058 32.7622C92.6713 32.762 92.7368 32.7615 92.8023 32.7607C93.4303 32.7535 94.0788 32.804 94.5668 33.2395C94.86 33.5468 94.9509 33.8461 94.9667 34.2658C94.9572 34.6334 94.8564 34.9926 94.6016 35.2702C94.2916 35.5153 93.8983 35.6495 93.524 35.7618C93.5562 35.7991 93.5883 35.8365 93.6214 35.8749C93.8959 36.1956 94.1603 36.5216 94.4155 36.8579C94.4498 36.9028 94.484 36.9478 94.5194 36.9941C94.5466 37.0383 94.5737 37.0825 94.6018 37.128C94.7612 37.2814 94.9098 37.268 95.1237 37.2696C95.1613 37.2708 95.1988 37.272 95.2376 37.2732C95.3299 37.276 95.4223 37.2774 95.5147 37.2785C95.5147 37.5131 95.5147 37.7478 95.5147 37.9895C94.936 37.9895 94.3573 37.9895 93.761 37.9895C93.7454 37.7705 93.7297 37.5515 93.7136 37.3259C93.5966 37.1602 93.4931 37.0266 93.3567 36.8824C93.2146 36.7236 93.0893 36.551 92.9612 36.3809C92.909 36.3123 92.8568 36.2438 92.8045 36.1752C92.7344 36.0828 92.6658 35.9913 92.6013 35.8948C92.5296 35.792 92.5296 35.792 92.3696 35.7803C92.3097 35.7781 92.2497 35.7759 92.188 35.7736C92.0975 35.7696 92.0975 35.7696 92.0052 35.7655C91.959 35.7643 91.9127 35.763 91.8651 35.7618C91.8675 35.9712 91.872 36.1805 91.8769 36.3898C91.8776 36.4493 91.8783 36.5087 91.879 36.57C91.8805 36.6271 91.882 36.6842 91.8836 36.7431C91.8846 36.7957 91.8856 36.8483 91.8866 36.9025C91.9181 37.0717 91.966 37.1284 92.1021 37.2311C92.2676 37.2642 92.2676 37.2642 92.4457 37.2667C92.6041 37.2725 92.6041 37.2725 92.7656 37.2785C92.7656 37.5131 92.7656 37.7478 92.7656 37.9895C91.9836 37.9895 91.2015 37.9895 90.3957 37.9895C90.3957 37.7549 90.3957 37.5203 90.3957 37.2785C90.5072 37.2727 90.5072 37.2727 90.6209 37.2667C90.7726 37.2587 90.8486 37.2472 90.9706 37.1547C91.0893 37.0033 91.0834 36.9096 91.0839 36.7184C91.0842 36.6864 91.0845 36.6543 91.0849 36.6212C91.0857 36.5154 91.0851 36.4097 91.0845 36.3039C91.0846 36.2302 91.0848 36.1566 91.085 36.0829C91.0853 35.9286 91.0849 35.7744 91.084 35.6201C91.083 35.4225 91.0836 35.2249 91.0847 35.0272C91.0854 34.8751 91.0852 34.7231 91.0847 34.571C91.0846 34.4981 91.0847 34.4252 91.0852 34.3524C91.0856 34.2505 91.0849 34.1487 91.0839 34.0468C91.0837 33.9888 91.0835 33.9309 91.0834 33.8712C91.0548 33.6958 91.0097 33.6401 90.8697 33.5341C90.7104 33.4964 90.5603 33.4953 90.3957 33.4867C90.3957 33.2521 90.3957 33.0174 90.3957 32.7757ZM91.8651 33.4867C91.8651 34.0028 91.8651 34.519 91.8651 35.0508C92.1422 35.0538 92.1422 35.0537 92.425 35.0567C92.4821 35.0576 92.5392 35.0585 92.5981 35.0594C93.0801 35.0618 93.5847 35.0483 93.9654 34.719C94.1166 34.5398 94.1092 34.3509 94.1056 34.1267C94.086 33.9452 94.0284 33.8552 93.9032 33.7237C93.5975 33.5252 93.3145 33.4805 92.9528 33.4821C92.8957 33.4822 92.8385 33.4823 92.7797 33.4824C92.7076 33.4828 92.6355 33.4833 92.5612 33.4837C92.3315 33.4847 92.1018 33.4857 91.8651 33.4867Z" fill="#191A23"/>
<path d="M63.3315 32.7757C63.7419 32.7725 64.1524 32.7699 64.5628 32.7683C64.7534 32.7676 64.944 32.7666 65.1346 32.765C65.319 32.7634 65.5034 32.7626 65.6878 32.7622C65.7577 32.762 65.8277 32.7615 65.8976 32.7607C66.51 32.7542 67.1046 32.8007 67.5974 33.2023C67.8672 33.4946 67.9733 33.8204 67.9778 34.2143C67.9568 34.5281 67.8684 34.7918 67.6322 35.006C67.5278 35.0877 67.4223 35.1656 67.313 35.2404C67.3433 35.2554 67.3737 35.2705 67.405 35.286C67.7701 35.4829 68.0325 35.74 68.1661 36.141C68.2007 36.6086 68.1954 37.0304 67.9067 37.4202C67.6016 37.757 67.188 37.9256 66.7442 37.9895C66.4814 38.0023 66.2191 38.0006 65.956 37.9987C65.8801 37.9986 65.8042 37.9984 65.7283 37.9983C65.5298 37.998 65.3314 37.9971 65.1329 37.996C64.9299 37.995 64.7268 37.9946 64.5238 37.9941C64.1264 37.9931 63.729 37.9914 63.3315 37.9895C63.3315 37.7549 63.3315 37.5202 63.3315 37.2785C63.3841 37.2773 63.4366 37.2761 63.4908 37.2748C63.5601 37.2721 63.6295 37.2694 63.6989 37.2667C63.7335 37.266 63.768 37.2653 63.8037 37.2646C63.9597 37.2575 64.067 37.2479 64.1946 37.1544C64.3075 37.0043 64.3038 36.9104 64.3048 36.7235C64.3052 36.692 64.3056 36.6605 64.306 36.628C64.3071 36.5239 64.3068 36.42 64.3063 36.3159C64.3066 36.2435 64.3069 36.171 64.3072 36.0985C64.3077 35.9466 64.3075 35.7948 64.3068 35.643C64.306 35.4486 64.3071 35.2543 64.3088 35.06C64.3098 34.9103 64.3098 34.7606 64.3094 34.6109C64.3093 34.5393 64.3096 34.4676 64.3103 34.396C64.3112 34.2957 64.3105 34.1955 64.3094 34.0952C64.3094 34.0382 64.3093 33.9812 64.3093 33.9225C64.2707 33.7265 64.1978 33.656 64.0425 33.5341C63.9081 33.5089 63.8058 33.4968 63.6722 33.4956C63.5598 33.4926 63.4474 33.4897 63.3315 33.4867C63.3315 33.2521 63.3315 33.0174 63.3315 32.7757ZM65.0853 33.4867C65.0853 33.9716 65.0853 34.4564 65.0853 34.956C66.0404 35.0071 66.0404 35.0071 66.9367 34.7338C67.0846 34.5574 67.172 34.3802 67.1698 34.1462C67.1298 33.9164 67.0247 33.7888 66.8505 33.6396C66.4921 33.4436 66.0976 33.4754 65.7014 33.4808C65.3964 33.4837 65.3964 33.4837 65.0853 33.4867ZM65.0853 35.6196C65.0853 36.167 65.0853 36.7145 65.0853 37.2785C65.3169 37.2824 65.5486 37.2863 65.7873 37.2904C65.8593 37.2921 65.9313 37.2938 66.0054 37.2956C66.4057 37.2988 66.84 37.2952 67.1583 37.0169C67.3505 36.7944 67.3744 36.6369 67.3704 36.3528C67.3508 36.1242 67.246 36.0254 67.0849 35.8714C66.6712 35.5713 66.1691 35.6132 65.6807 35.6166C65.4842 35.6176 65.2877 35.6186 65.0853 35.6196Z" fill="#191A23"/>
<path d="M96.6523 32.7757C97.4656 32.7757 98.279 32.7757 99.117 32.7757C99.117 33.0103 99.117 33.245 99.117 33.4867C98.975 33.4929 98.8331 33.499 98.6911 33.5052C98.5234 33.5391 98.4658 33.5936 98.3586 33.7237C98.3733 33.747 98.3881 33.7703 98.4033 33.7943C98.4733 33.905 98.5434 34.0158 98.6134 34.1266C98.6389 34.1669 98.6644 34.2073 98.6907 34.2489C98.8809 34.55 99.0699 34.8517 99.2575 35.1544C99.3428 35.3 99.3428 35.3 99.4488 35.43C99.4635 35.4053 99.4782 35.3805 99.4934 35.355C99.8201 34.8074 100.151 34.2629 100.492 33.7237C100.44 33.6251 100.44 33.6251 100.349 33.5341C100.159 33.4944 99.9754 33.4951 99.7805 33.4867C99.7805 33.2521 99.7805 33.0175 99.7805 32.7757C100.563 32.7757 101.345 32.7757 102.15 32.7757C102.15 33.0103 102.15 33.245 102.15 33.4867C101.947 33.4867 101.744 33.4867 101.534 33.4867C101.503 33.5649 101.472 33.6431 101.439 33.7237C101.385 33.8133 101.327 33.9014 101.269 33.9884C101.234 34.0398 101.199 34.0912 101.164 34.1441C101.136 34.1847 101.136 34.1847 101.108 34.2261C101.051 34.3114 100.994 34.397 100.937 34.4827C100.754 34.7583 100.568 35.0305 100.372 35.2969C99.9734 35.8482 99.7659 36.2607 99.8425 36.9503C99.89 37.0823 99.9551 37.1449 100.065 37.2311C100.188 37.2612 100.188 37.2612 100.322 37.26C100.37 37.2615 100.419 37.2631 100.469 37.2646C100.545 37.2656 100.545 37.2656 100.622 37.2667C100.673 37.2681 100.724 37.2695 100.777 37.2709C100.903 37.2743 101.029 37.2765 101.155 37.2785C101.155 37.5131 101.155 37.7478 101.155 37.9895C99.9976 37.9895 98.8402 37.9895 97.6476 37.9895C97.6476 37.7549 97.6476 37.5203 97.6476 37.2785C97.7241 37.2773 97.8006 37.2761 97.8794 37.2748C97.9799 37.2722 98.0804 37.2694 98.1809 37.2667C98.2313 37.266 98.2817 37.2653 98.3336 37.2646C98.3822 37.2631 98.4308 37.2616 98.4808 37.26C98.5478 37.2585 98.5478 37.2585 98.6162 37.257C98.7735 37.2235 98.83 37.1677 98.9274 37.0415C99.0404 36.6927 99.0013 36.2124 98.8383 35.8875C98.7259 35.6975 98.5966 35.5199 98.4661 35.342C98.2548 35.049 98.0553 34.7478 97.8534 34.4484C97.7785 34.3376 97.703 34.2273 97.6273 34.1171C97.6037 34.0825 97.58 34.0479 97.5557 34.0122C97.5107 33.9463 97.4655 33.8806 97.4201 33.8149C97.2684 33.5922 97.2685 33.5922 97.2685 33.4867C97.0651 33.4867 96.8618 33.4867 96.6523 33.4867C96.6523 33.2521 96.6523 33.0175 96.6523 32.7757Z" fill="#191A23"/>
<path d="M71.6736 32.7757C71.9864 32.7757 72.2992 32.7757 72.6215 32.7757C72.8888 33.4304 73.1398 34.0903 73.3872 34.7527C73.6105 35.3507 73.8358 35.9478 74.0642 36.5439C74.0777 36.5791 74.0912 36.6144 74.1051 36.6507C74.1793 36.8442 74.2535 37.0377 74.3279 37.2311C74.5156 37.2468 74.7032 37.2624 74.8966 37.2785C74.8966 37.5131 74.8966 37.7478 74.8966 37.9895C74.1459 37.9895 73.3951 37.9895 72.6215 37.9895C72.6215 37.7549 72.6215 37.5203 72.6215 37.2785C72.765 37.2708 72.9085 37.2631 73.052 37.2554C73.1986 37.2297 73.2439 37.2049 73.3325 37.0889C73.3108 37.0158 73.2891 36.9428 73.2673 36.8697C73.2552 36.829 73.2431 36.7883 73.2307 36.7464C73.1879 36.6071 73.1416 36.4688 73.0955 36.3306C72.1336 36.3071 72.1336 36.3071 71.1522 36.2832C71.0717 36.5516 70.9914 36.8194 70.9152 37.0889C71.0059 37.211 71.0527 37.2304 71.2061 37.2554C71.2616 37.2581 71.3171 37.2609 71.3744 37.2637C71.4731 37.2686 71.5718 37.2735 71.6736 37.2785C71.6736 37.5131 71.6736 37.7478 71.6736 37.9895C70.9384 37.9895 70.2033 37.9895 69.4459 37.9895C69.4459 37.7549 69.4459 37.5203 69.4459 37.2785C69.6336 37.2785 69.8213 37.2785 70.0146 37.2785C70.0316 37.2177 70.0486 37.1569 70.0661 37.0943C70.1818 36.7095 70.3287 36.3358 70.4708 35.9603C70.5018 35.878 70.5328 35.7958 70.5638 35.7136C70.6471 35.4924 70.7307 35.2713 70.8143 35.0502C70.8886 34.8537 70.9627 34.6571 71.0369 34.4606C71.2489 33.8989 71.4612 33.3373 71.6736 32.7757ZM72.1002 33.6289C72.0055 33.8903 71.911 34.1519 71.8167 34.4134C71.7845 34.5025 71.7523 34.5915 71.7201 34.6805C71.6738 34.8082 71.6278 34.936 71.5817 35.0638C71.5672 35.1037 71.5527 35.1437 71.5378 35.1848C71.5245 35.2218 71.5112 35.2588 71.4975 35.297C71.4857 35.3296 71.4739 35.3622 71.4618 35.3958C71.4319 35.4783 71.4319 35.4783 71.4366 35.5722C71.8902 35.5722 72.3438 35.5722 72.8111 35.5722C72.7718 35.3289 72.7718 35.3289 72.7018 35.1032C72.6894 35.07 72.6771 35.0369 72.6644 35.0027C72.6512 34.9678 72.6379 34.933 72.6243 34.8971C72.6107 34.8607 72.5971 34.8243 72.5831 34.7868C72.5398 34.6713 72.4963 34.5559 72.4527 34.4406C72.4232 34.362 72.3937 34.2833 72.3643 34.2047C72.2923 34.0127 72.22 33.8207 72.1476 33.6289C72.1319 33.6289 72.1163 33.6289 72.1002 33.6289Z" fill="#191A23"/>
<path d="M82.4936 -1.86772C82.9335 -1.72111 83.2409 -1.49575 83.4638 -1.08121C83.6618 -0.643313 83.7255 -0.234533 83.7304 0.242973C83.7314 0.304864 83.7314 0.304864 83.7324 0.368005C83.729 0.837623 83.6156 1.24328 83.2861 1.58789C82.9554 1.86344 82.6096 1.85536 82.1959 1.82488C81.7463 1.73041 81.4126 1.49759 81.162 1.11391C80.7218 0.339873 80.7421 -0.571337 80.9441 -1.42095C81.0219 -1.66623 81.1391 -1.77654 81.3428 -1.91956C81.6689 -2.08262 82.1596 -1.96266 82.4936 -1.86772Z" fill="#191A23"/>
<path d="M104.9 32.7757C105.04 32.7757 105.181 32.7757 105.326 32.7757C105.451 33.0103 105.576 33.245 105.705 33.4867C105.82 33.3336 105.909 33.1921 105.999 33.0246C106.024 32.9779 106.049 32.9312 106.075 32.8831C106.094 32.8477 106.112 32.8122 106.132 32.7757C106.273 32.7757 106.413 32.7757 106.558 32.7757C106.558 33.3232 106.558 33.8706 106.558 34.4346C106.433 34.4346 106.308 34.4346 106.179 34.4346C106.164 34.1531 106.148 33.8716 106.132 33.5815C106.09 33.6597 106.048 33.7379 106.004 33.8185C105.933 33.9518 105.933 33.9518 105.847 34.0555C105.729 34.0836 105.729 34.0836 105.61 34.0555C105.492 33.9256 105.417 33.781 105.326 33.6289C105.31 33.8948 105.295 34.1607 105.279 34.4346C105.154 34.4346 105.028 34.4346 104.9 34.4346C104.9 33.8872 104.9 33.3398 104.9 32.7757Z" fill="#191A23"/>
<path d="M103.43 32.7757C103.852 32.7757 104.275 32.7757 104.71 32.7757C104.71 32.8852 104.71 32.9947 104.71 33.1075C104.554 33.1075 104.397 33.1075 104.236 33.1075C104.236 33.5455 104.236 33.9834 104.236 34.4346C104.111 34.4346 103.986 34.4346 103.857 34.4346C103.857 33.9967 103.857 33.5587 103.857 33.1075C103.716 33.1075 103.575 33.1075 103.43 33.1075C103.43 32.998 103.43 32.8885 103.43 32.7757Z" fill="#191A23"/>
</svg>
