<svg width="115" height="37" viewBox="0 0 115 37" fill="none" xmlns="http://www.w3.org/2000/svg">
<path d="M15.8052 0.103498C8.59966 1.21986 2.53943 7.0771 1.06062 14.3262C0.698169 16.1094 0.654675 19.3425 0.959136 21.1403C2.14798 27.8239 7.17884 33.4347 13.7175 35.334C16.3127 36.0734 14.2684 36.0444 57.1539 36.0444H97.2413L98.7346 35.7109C105.824 34.1451 111.044 29.1578 112.769 22.2712C113.276 20.2704 113.407 17.0663 113.059 15.0076C111.739 7.29458 105.882 1.43733 98.1257 0.089C96.9948 -0.0994758 92.1669 -0.128472 56.951 -0.113974C24.1417 -0.0994758 16.8491 -0.0704796 15.8052 0.103498ZM96.9513 6.03324C101.605 6.84513 105.215 10.1217 106.68 14.8771C106.897 15.573 106.955 16.2109 106.955 18.0667C106.955 20.2414 106.926 20.4734 106.535 21.6187C104.954 26.3306 101.315 29.3463 96.4004 30.0132C94.7911 30.2306 19.2703 30.2306 17.8205 30.0132C12.8766 29.2738 9.15059 26.1422 7.70077 21.4738C7.39631 20.5314 7.35282 20.0819 7.35282 18.0667C7.35282 16.037 7.39631 15.6165 7.68627 14.6596C8.90412 10.7886 11.9052 7.65703 15.5153 6.46818C17.5015 5.83026 16.3127 5.84476 57.0235 5.83027C90.9926 5.81577 95.835 5.84476 96.9513 6.03324Z" fill="#191A23"/>
<path d="M63.5621 10.0927C60.6915 10.6292 58.3283 12.5719 57.2119 15.3121C56.8785 16.1674 56.7915 16.5879 56.748 17.9507C56.7045 19.3135 56.7335 19.7485 56.9945 20.6039C57.7194 22.9816 59.2417 24.7503 61.4889 25.8087C62.7937 26.4176 63.7796 26.5916 65.4904 26.5046C67.7811 26.3886 69.5933 25.5912 71.0722 24.0254C72.145 22.8946 72.493 22.0102 72.232 21.0388C71.855 19.6325 70.4777 18.8206 69.0569 19.1831C68.6075 19.299 68.1725 19.589 67.5346 20.1834C65.9688 21.6912 64.432 21.8652 63.0257 20.7199C62.2863 20.0964 61.9093 19.2845 61.9093 18.2842C61.9093 16.4574 63.2142 15.1816 65.0554 15.1816C66.1428 15.1816 66.6357 15.4425 67.7376 16.5444C68.448 17.2693 68.68 17.3998 69.2599 17.5013C70.6517 17.7042 71.884 16.9068 72.2175 15.6165C72.551 14.2972 71.8985 13.0648 70.2023 11.731C68.332 10.2667 65.8673 9.65778 63.5621 10.0927Z" fill="#191A23"/>
<path d="M29.274 10.3827C28.5781 10.6292 28.0417 11.1076 27.7807 11.7165C27.4762 12.4414 27.4907 20.5024 27.8097 21.6912C28.2156 23.257 29.2015 24.6054 30.6513 25.5477C31.8257 26.3016 33.0435 26.6061 34.6383 26.5191C35.7402 26.4756 36.0591 26.3886 37.016 25.9247C39.0313 24.9533 40.3941 23.1265 40.771 20.9083C40.8725 20.2704 40.916 18.4871 40.887 15.95C40.8435 12.3254 40.8145 11.934 40.5681 11.5135C39.5387 9.83175 37.132 9.78826 36.1026 11.441C35.7837 11.963 35.7692 12.108 35.6967 16.2979L35.6242 20.6329L35.1458 21.0533C34.6528 21.5028 34.1889 21.5752 33.6234 21.3143C32.8985 20.9808 32.8695 20.8213 32.7971 16.3269C32.7101 11.818 32.6956 11.673 31.8982 10.9336C31.4922 10.5422 30.6078 10.1652 30.1584 10.1652C29.9699 10.1797 29.5785 10.2667 29.274 10.3827Z" fill="#191A23"/>
<path d="M43.6272 10.3827C43.3082 10.4842 42.9023 10.7306 42.6993 10.9191C41.9454 11.615 41.9309 11.7165 41.9309 18.3132C41.9309 24.4169 41.9309 24.4459 42.2643 25.0258C43.2792 26.8091 46.1353 26.6351 46.8603 24.7503C46.9472 24.5184 47.0197 23.373 47.0197 22.1697C47.0197 20.9083 47.0777 20.0239 47.1647 20.0529C47.2372 20.0819 48.2666 21.3433 49.4409 22.8511C50.6298 24.3734 51.8186 25.7652 52.0941 25.9392C52.5145 26.2292 52.732 26.2726 53.4859 26.2292C54.8922 26.1422 55.7476 25.3303 55.9216 23.8949C55.9796 23.4745 55.9941 20.6619 55.9651 17.6318C55.9216 12.8329 55.8926 12.0645 55.6751 11.6875C54.7762 10.0637 52.819 9.73026 51.5577 10.9771C50.9197 11.6295 50.7748 12.2239 50.7748 14.3987C50.7748 15.428 50.7313 16.2544 50.6733 16.2544C50.6008 16.2399 50.2673 15.863 49.9049 15.4135C45.7149 10.1217 45.2945 9.77376 43.6272 10.3827Z" fill="#191A23"/>
<path d="M79.3796 10.3247C78.4227 10.6002 78.0603 11.1946 75.2766 17.0663L72.5945 22.7061V23.75C72.5945 24.8663 72.7829 25.2868 73.5803 25.8812C74.1313 26.2871 75.5086 26.3741 76.2045 26.0407C76.6974 25.8087 77.4223 24.9533 77.6398 24.3299C77.7268 24.1124 77.9878 24.0834 80.1915 24.0834H82.6417L83.0766 24.8663C83.6275 25.8377 84.28 26.2581 85.2368 26.2726C86.7157 26.3161 87.7595 25.3883 87.861 23.9529C87.919 23.0831 87.9915 23.2425 85.3818 17.7042C85.0339 16.9503 84.5699 15.9645 84.3814 15.5295C82.3517 11.1221 82.0907 10.7161 80.9454 10.3392C80.38 10.1362 80.032 10.1362 79.3796 10.3247ZM80.6264 19.3135C81.0759 20.4299 81.0614 20.4879 80.177 20.4299C79.5536 20.4009 79.4231 20.3429 79.4521 20.1399C79.5101 19.734 80.061 18.5741 80.1915 18.5741C80.264 18.5741 80.4524 18.9076 80.6264 19.3135Z" fill="#191A23"/>
<path d="M90.0647 10.3392C89.7892 10.4117 89.3688 10.6581 89.1368 10.8611C88.3249 11.615 88.3249 11.6585 88.3249 18.3132C88.3249 24.4024 88.3249 24.4459 88.6584 25.0258C89.1513 25.8812 89.9197 26.2871 91.0216 26.2292C91.732 26.1857 92.022 26.0842 92.4569 25.7652C93.2978 25.1273 93.4283 24.6489 93.4138 22.1697C93.4138 20.8793 93.4718 20.0239 93.5588 20.0529C93.6313 20.0819 94.6606 21.3433 95.835 22.8511C97.0238 24.3734 98.2127 25.7652 98.4881 25.9392C98.9086 26.2292 99.1261 26.2726 99.88 26.2292C101.286 26.1422 102.142 25.3303 102.316 23.8949C102.374 23.4745 102.388 20.6619 102.359 17.6318C102.316 12.8329 102.287 12.0645 102.069 11.6875C101.185 10.0637 99.213 9.73026 97.9662 10.9626C97.3138 11.6295 97.1688 12.2094 97.1688 14.3987C97.1688 15.428 97.1253 16.2544 97.0673 16.2544C96.9948 16.2399 95.9655 15.0221 94.7766 13.5288C92.08 10.1942 91.645 9.88974 90.0647 10.3392Z" fill="#191A23"/>
<path d="M13.616 10.5132C13.2971 10.6292 12.8911 10.8756 12.6881 11.0641C11.9342 11.7455 11.9197 11.876 11.9197 18.1972C11.9197 24.7503 11.9342 24.8953 12.8766 25.6057C13.587 26.1422 14.9498 26.3161 17.632 26.2002C20.2272 26.0842 20.7926 25.9682 22.1989 25.2868C26.9978 22.9236 27.9837 16.2399 24.0692 12.5429C23.1413 11.6585 22.3149 11.1656 21.0536 10.7306C20.2272 10.4407 19.7632 10.3972 17.1391 10.3537C14.8194 10.3102 14.051 10.3537 13.616 10.5132ZM19.1108 15.3121C20.8216 15.8195 21.793 17.7912 21.1261 19.415C20.8071 20.1544 19.9372 21.0098 19.3138 21.1838C19.0383 21.2563 18.4294 21.3288 17.98 21.3288H17.1391V15.0946H17.7625C18.1104 15.0946 18.7194 15.1961 19.1108 15.3121Z" fill="#191A23"/>
<path d="M111.174 30.4916C110.841 30.5786 110.348 30.8976 109.985 31.26C108.202 33.0433 109.42 36.1169 111.913 36.1169C113.697 36.1169 115.002 34.7106 114.828 32.9418C114.654 31.2165 112.885 30.0277 111.174 30.4916ZM113.175 31.3035C114.204 31.8979 114.581 33.2897 114.001 34.3336C113.566 35.0875 113.059 35.421 112.232 35.508C111.377 35.5805 110.768 35.363 110.29 34.7831C109.478 33.8117 109.521 32.5068 110.406 31.6515C111.218 30.8686 112.203 30.7526 113.175 31.3035Z" fill="#191A23"/>
<path d="M110.942 33.1303C110.942 34.4206 110.957 34.5221 111.232 34.5221C111.464 34.5221 111.522 34.4206 111.522 34.0871C111.522 33.7537 111.58 33.6522 111.812 33.6522C111.986 33.6522 112.189 33.8262 112.319 34.0871C112.45 34.3481 112.653 34.5221 112.827 34.5221C113.175 34.5221 113.189 34.4061 112.885 33.9712C112.682 33.6812 112.682 33.6232 112.885 33.4202C113.015 33.3042 113.117 33.0143 113.117 32.7968C113.117 32.1154 112.827 31.8979 111.841 31.8109L110.942 31.7239V33.1303ZM112.45 32.3909C112.899 32.7098 112.624 33.2173 112.015 33.2173C111.551 33.2173 111.522 33.1883 111.522 32.7098C111.522 32.2749 111.565 32.2024 111.855 32.2024C112.044 32.2024 112.305 32.2894 112.45 32.3909Z" fill="#191A23"/>
</svg>
