<svg width="125" height="38" viewBox="0 0 125 38" fill="none" xmlns="http://www.w3.org/2000/svg">
<path d="M0.0678711 37.9481H53.297V-1.94775H0.0678711V37.9481ZM20.0158 8.49495V16.1512L18.1668 18.0002L20.0158 19.8491V27.4533L16.1877 31.2814H6.68246V18.0106C6.68246 10.7085 6.69808 4.71891 6.71891 4.70329C6.73454 4.68245 8.87516 4.66683 11.4689 4.66683H16.1877L20.0158 8.49495ZM44.7137 6.57829L46.6304 8.49495V16.1512L43.8179 18.9637L45.4585 25.0835C46.3595 28.4481 47.0991 31.2189 47.0991 31.245C47.0991 31.2658 46.2033 31.2762 45.1095 31.271L43.12 31.2554L40.0991 19.9793H37.3075V31.2814H33.297V18.0106C33.297 10.7085 33.3127 4.71891 33.3335 4.70329C33.3491 4.68245 35.4897 4.66683 38.0835 4.66683H42.797L44.7137 6.57829ZM30.0158 14.6825V16.9845L23.3491 23.6512V18.9637L26.6408 15.672C28.4533 13.8595 29.9533 12.3752 29.9741 12.3752C30.0002 12.3752 30.0158 13.4116 30.0158 14.6825Z" fill="#191A23"/>
<path d="M10.6929 15.9689H14.5731L16.0054 14.5366V10.1616L14.521 8.67724H10.6929V15.9689Z" fill="#191A23"/>
<path d="M10.6929 27.3231H14.521L16.0054 25.8387V21.4637L14.521 19.9793H10.6929V27.3231Z" fill="#191A23"/>
<path d="M37.3075 16.021H41.1252L41.8752 15.2814L42.62 14.5418V10.1616L41.1356 8.67724H37.3075V16.021Z" fill="#191A23"/>
<path d="M59.9481 3.03662C59.9272 3.05224 59.9116 6.05224 59.9116 9.70329V16.3335H64.6877L65.6356 15.37L66.5783 14.4064V10.5783L65.6668 9.66683L66.5783 8.75537V4.9012L64.6772 3.00016H62.3283C61.0366 3.00016 59.9637 3.01579 59.9481 3.03662ZM64.5991 5.72933V7.92724L64.2189 8.30224L63.8439 8.67724H61.9429V5.03141H63.8908L64.5991 5.72933ZM64.2189 11.0314L64.5991 11.4064V13.547L64.2554 13.922L63.9116 14.3022H61.9429V10.6564H63.8439L64.2189 11.0314Z" fill="#191A23"/>
<path d="M68.3491 16.3335L71.1772 16.3231L74.0002 16.3075L74.0158 15.3335L74.0262 14.3543L72.1929 14.3439L70.3543 14.3283L70.3283 3.00016H68.3491V16.3335Z" fill="#191A23"/>
<path d="M75.6408 16.3335H81.6304V14.3543L79.6408 14.3439L77.646 14.3283L77.6304 12.4897L77.62 10.6564H80.9533V8.67724H77.62V5.03141H81.6304L81.62 4.0262L81.6043 3.0262L78.6252 3.01058L75.6408 3.00016V16.3335Z" fill="#191A23"/>
<path d="M85.3543 3.06266C85.3283 3.15641 83.0366 16.1929 83.0366 16.271C83.0366 16.3179 83.2866 16.3335 84.0262 16.3335C84.5731 16.3335 85.0158 16.3283 85.0158 16.3179C85.0158 16.3127 85.1564 15.5106 85.3283 14.5366C85.5002 13.5627 85.6408 12.7502 85.6408 12.7241C85.6408 12.7033 86.3335 12.6877 87.1773 12.6877C88.1773 12.6877 88.7137 12.7085 88.7137 12.7397C88.7137 12.8022 89.2085 15.6512 89.2918 16.0575L89.3439 16.3335H90.3335C90.8752 16.3335 91.3179 16.3127 91.3179 16.2866C91.3179 16.2293 89.0366 3.2762 89.0002 3.11474L88.9741 3.00016H87.1721C85.7814 3.00016 85.37 3.01579 85.3543 3.06266ZM87.3596 5.06787C87.3596 5.13037 88.3023 10.4741 88.3283 10.5627C88.3543 10.6512 88.2762 10.6564 87.1773 10.6564H86.0054L86.0314 10.5366C86.0627 10.396 86.995 5.10954 86.995 5.06266C86.995 5.04704 87.0783 5.03141 87.1773 5.03141C87.2762 5.03141 87.3596 5.04704 87.3596 5.06787Z" fill="#191A23"/>
<path d="M93.8283 3.94808L92.8387 4.9012L92.8283 14.3804L94.7814 16.3335H97.6095L98.5523 15.3543L99.495 14.3804V12.0106H97.4637V13.5991L97.12 13.9741L96.7762 14.3543H95.6512L94.8075 13.5627V5.77099L95.6095 5.03141H96.8283L97.146 5.38037L97.4637 5.73454V7.32308H99.495V4.92724L98.5523 3.9637L97.6043 3.00016H94.8179L93.8283 3.94808Z" fill="#191A23"/>
<path d="M101.266 16.3335H103.245V10.6564H105.901V16.3335H107.88V3.00016H105.901V8.67724H103.245V3.00016H101.266V16.3335Z" fill="#191A23"/>
<path d="M109.703 16.3335H115.693V14.3543L113.703 14.3439L111.709 14.3283L111.693 12.4897L111.682 10.6564H115.016V8.67724H111.682V5.03141H115.693L115.682 4.0262L115.667 3.0262L112.688 3.01058L109.703 3.00016V16.3335Z" fill="#191A23"/>
<path d="M117.412 16.3335H119.391L119.401 13.5054L119.417 10.6825L120.219 10.6668C120.662 10.6616 121.042 10.672 121.063 10.6929C121.084 10.7189 121.313 11.9272 121.573 13.3908C121.839 14.8491 122.063 16.1095 122.078 16.1877L122.11 16.3335H123.094C124 16.3335 124.078 16.3283 124.078 16.2397C124.073 16.1929 123.818 14.745 123.511 13.0262L122.943 9.9012L124.078 8.75537V4.96891L122.182 3.00016H117.412V16.3335ZM121.703 5.38037L122.047 5.73454V7.96891L121.349 8.67724H119.391V5.03141H121.36L121.703 5.38037Z" fill="#191A23"/>
<path d="M59.9116 32.9481H61.9429V27.3231H62.771C63.5835 27.3231 63.5991 27.3231 63.6252 27.4377C63.6408 27.5054 63.87 28.7658 64.1356 30.2397C64.396 31.7137 64.6147 32.9272 64.6252 32.9377C64.6304 32.9429 65.0783 32.9429 65.6252 32.9377L66.6095 32.922L66.0418 29.7345L65.4689 26.5418L66.0262 25.9689L66.5783 25.396V21.5835L64.7345 19.6668H59.9116V32.9481ZM64.2293 22.021L64.5991 22.4012V24.5366L64.2554 24.9116L63.9116 25.2918H61.9429V21.646H63.8595L64.2293 22.021Z" fill="#191A23"/>
<path d="M68.3491 32.9481H74.3387V30.9689H70.3283V27.3231H73.6616V25.2918H70.3283V21.646H74.3387V19.6668H68.3491V32.9481Z" fill="#191A23"/>
<path d="M76.1095 32.9481H78.0887V27.3231H80.8752L81.8023 26.3647L82.7241 25.4064V23.4585L82.7189 21.5158L81.8127 20.5887L80.9012 19.6668H76.1095V32.9481ZM80.745 22.3439V24.547L80.422 24.9168L80.0939 25.2866L79.0939 25.2918H78.0887V21.646H80.0366L80.745 22.3439Z" fill="#191A23"/>
<path d="M84.3335 21.5679L84.3387 26.2814V30.9949L86.2918 32.9481H89.1408L91.0002 31.047L91.0054 26.3127V21.5783L90.0887 20.6252L89.172 19.6668H87.7293L86.2918 19.672L84.3335 21.5679ZM88.6773 22.0314L89.0262 22.422V30.1877L88.3231 30.9637H87.7241L87.1252 30.9689L86.3179 30.1616V22.4064L87.1252 21.6512L87.7241 21.646H88.3231L88.6773 22.0314Z" fill="#191A23"/>
<path d="M92.7762 32.9481H94.7554V27.3231L95.5991 27.3335L96.4481 27.3491L96.9533 30.1356C97.2293 31.6668 97.4585 32.9272 97.4585 32.9324C97.4637 32.9533 99.4429 32.9533 99.4429 32.9324C99.4429 32.9272 99.1877 31.4793 98.87 29.7189L98.2971 26.5158L99.3908 25.422V21.5158L97.5418 19.6668H92.7762V32.9481ZM97.4116 22.396V24.5835L96.7137 25.2918H94.7554V21.646H96.7241L97.4116 22.396Z" fill="#191A23"/>
<path d="M100.953 21.646H102.724V32.9481H104.755V21.646H106.578V19.6668H100.953V21.646Z" fill="#191A23"/>
</svg>
