<svg width="97" height="36" viewBox="0 0 97 36" fill="none" xmlns="http://www.w3.org/2000/svg">
<path d="M90.4346 0.0700811C89.6645 0.186761 88.98 0.443455 88.4277 0.832387C87.2765 1.64914 86.6931 2.80038 86.5298 4.58946C86.4209 5.73292 86.4209 13.5738 86.522 14.7328C86.5609 15.1995 86.6464 15.7907 86.7164 16.0318C86.9887 17.0742 87.7277 18.1398 88.5444 18.661C89.4467 19.2444 90.8547 19.5089 92.2159 19.3611C94.7595 19.081 96.0819 17.6965 96.4397 14.9273C96.5097 14.3516 96.4786 14.3361 94.7284 14.0327C93.7017 13.8616 93.1494 13.7916 93.0871 13.846C93.0405 13.8849 92.9782 14.1572 92.9471 14.445C92.8771 15.1295 92.5737 15.7518 92.2004 15.9463C91.8114 16.1563 91.1347 16.1485 90.8002 15.9151C90.3413 15.6118 90.2402 15.3473 90.1624 14.165C90.0535 12.6715 90.1313 4.64391 90.2557 4.22387C90.5357 3.25932 91.7259 2.94039 92.426 3.64047C92.7371 3.95162 92.8849 4.3561 92.9705 5.11063C93.0094 5.48401 93.0405 5.55401 93.1805 5.57735C93.3361 5.60069 95.9575 5.18064 96.2608 5.07952C96.4553 5.01729 96.4864 4.85394 96.3931 4.20831C96.1519 2.38811 95.3352 1.14353 93.9739 0.497906C93.056 0.0623024 91.6403 -0.108827 90.4346 0.0700811Z" fill="black"/>
<path d="M5.08751 0.295661C5.02528 0.334554 4.76081 1.35355 4.41855 2.87817C4.10741 4.26276 3.6718 6.19964 3.454 7.18753C3.22842 8.16763 2.82393 9.98783 2.5439 11.2324C2.26387 12.4692 1.84382 14.3439 1.61047 15.394C1.37711 16.4441 1.09708 17.6809 0.988176 18.1476C0.887054 18.6066 0.824825 19.0188 0.84816 19.0577C0.918168 19.1744 4.27076 19.1433 4.3641 19.0266C4.41077 18.9799 4.55079 18.3187 4.6908 17.572C4.82304 16.8252 4.97083 16.0474 5.01751 15.8374L5.09529 15.4718H6.86882C8.49455 15.4718 8.65013 15.4795 8.68902 15.604C8.70458 15.6818 8.85237 16.4597 9.01572 17.3386C9.17129 18.2176 9.33464 18.9799 9.37354 19.0266C9.49022 19.1744 12.8272 19.1666 12.8817 19.0266C12.905 18.9721 12.835 18.5599 12.7339 18.1087C12.6328 17.6653 11.9716 14.6706 11.2637 11.4658C9.07795 1.56358 8.82125 0.443455 8.72791 0.334554C8.6579 0.248989 8.30009 0.225653 6.91549 0.225653C5.97428 0.225653 5.14974 0.256768 5.08751 0.295661ZM7.26553 7.73981C7.98894 11.6758 8.1134 12.3914 8.1134 12.4925C8.1134 12.5703 7.84893 12.5937 6.86104 12.5937H5.60868L5.65535 12.337C5.68647 12.2047 5.95094 10.789 6.25431 9.20997C6.84548 6.09074 6.86882 5.9585 6.92327 6.00517C6.93883 6.02073 7.0944 6.80637 7.26553 7.73981Z" fill="black"/>
<path d="M14.0252 0.373447C13.924 0.567913 13.924 3.25154 14.0252 3.41489C14.0874 3.50823 14.3752 3.53157 15.7131 3.54713L17.3311 3.55491L17.37 11.3258C17.3933 15.5962 17.4166 19.0966 17.4322 19.1122C17.44 19.1199 18.2412 19.1199 19.2213 19.1122L20.987 19.0888L21.0259 3.57046L22.4883 3.56269C23.2895 3.55491 23.9662 3.55491 23.9974 3.56269C24.0285 3.56269 24.1452 3.53157 24.2541 3.49268L24.4485 3.41489V1.91362C24.4485 0.847944 24.4252 0.389004 24.3552 0.318997C24.2852 0.248989 23.0328 0.225653 19.1824 0.225653C14.243 0.225653 14.1029 0.233432 14.0252 0.373447Z" fill="black"/>
<path d="M27.6066 0.350111C27.4977 0.459012 27.4822 1.41578 27.4822 9.70002C27.4822 14.7795 27.5133 18.9799 27.5444 19.0344C27.5989 19.1044 28.0111 19.1277 29.3568 19.1122L31.0992 19.0888L31.1381 15.1217C31.1615 12.9359 31.1848 11.1468 31.2004 11.1313C31.2081 11.1235 31.8382 11.1157 32.6083 11.1157C33.674 11.1157 34.0162 11.1391 34.0862 11.2169C34.1407 11.2946 34.1796 12.5003 34.1874 15.2073L34.2107 19.0888H37.7111L37.75 0.303439L37.5788 0.264546C37.4777 0.24121 36.6843 0.233432 35.8053 0.24121L34.2107 0.264546L34.1329 7.80982H31.177L31.1537 4.12275C31.1459 1.5558 31.107 0.404562 31.0526 0.326775C30.9826 0.248989 30.6014 0.225653 29.3413 0.225653C27.98 0.225653 27.7078 0.24121 27.6066 0.350111Z" fill="black"/>
<path d="M41.8493 0.318997C41.7249 0.41234 41.7171 1.05019 41.7326 9.75447L41.756 19.0888H50.5458L50.5692 17.5642C50.5847 16.3508 50.5692 16.0163 50.4836 15.954C50.4136 15.8918 49.589 15.8529 47.8933 15.8451L45.4119 15.8218L45.3886 8.12874C45.3808 2.59813 45.3497 0.404562 45.2875 0.326775C45.163 0.18676 42.0438 0.178982 41.8493 0.318997Z" fill="black"/>
<path d="M53.7895 0.287886C53.7117 0.342336 53.6884 2.15476 53.6962 9.67669C53.6962 14.795 53.7195 19.0188 53.7428 19.0577C53.7662 19.0966 55.7108 19.1277 58.0911 19.1277C61.9415 19.1277 62.3927 19.1122 62.4393 19.0033C62.4627 18.9333 62.486 18.241 62.486 17.4553C62.486 16.3663 62.4627 16.0163 62.3849 15.9463C62.3149 15.8918 61.467 15.8529 59.7946 15.8451L57.3132 15.8218V11.3102L59.4912 11.2869C61.4281 11.2713 61.677 11.2558 61.7704 11.1391C61.9026 10.9602 61.9026 8.22987 61.7704 8.09763C61.7004 8.02762 61.1014 8.00429 59.569 8.00429C58.0366 8.00429 57.4377 7.98095 57.3677 7.91094C57.2588 7.80204 57.2354 3.68715 57.3443 3.61714C57.3755 3.5938 58.4645 3.57047 59.7557 3.57047C61.0548 3.56269 62.1904 3.53157 62.2993 3.49268L62.486 3.41489V1.97585C62.486 1.12798 62.4549 0.466794 62.4082 0.373451C62.3304 0.233436 62.1982 0.225657 58.1067 0.225657C55.7886 0.225657 53.844 0.256771 53.7895 0.287886Z" fill="black"/>
<path d="M65.6986 0.280105C65.6208 0.303441 65.5975 0.700151 65.5975 1.85917C65.5975 3.28266 65.6052 3.41489 65.7375 3.4849C65.8231 3.53157 66.5465 3.56269 67.3866 3.56269C68.2111 3.56269 68.8956 3.57825 68.9112 3.5938C68.9345 3.60936 68.9423 7.07085 68.9423 11.2869C68.9423 17.7276 68.9578 18.9644 69.0512 19.0422C69.1212 19.1044 69.6657 19.1277 70.8558 19.1122L72.5593 19.0888L72.5827 11.388C72.5905 6.86083 72.6293 3.66381 72.6682 3.62492C72.7071 3.58602 73.4072 3.55491 74.224 3.56269C75.173 3.57047 75.7641 3.54713 75.8653 3.49268C76.0131 3.41489 76.0208 3.33711 76.0208 1.86695C76.0208 0.529022 76.0053 0.31122 75.8964 0.272327C75.7486 0.217876 65.8386 0.217876 65.6986 0.280105Z" fill="black"/>
<path d="M79.2256 0.287884C79.1478 0.342334 79.1323 2.27921 79.1478 9.72336L79.1712 19.0888L80.8747 19.1122C81.8159 19.1199 82.6093 19.1044 82.6482 19.0655C82.6793 19.0344 82.7104 14.8106 82.7104 9.67669C82.7104 2.24032 82.6949 0.342334 82.6171 0.287884C82.4849 0.210097 79.3579 0.210097 79.2256 0.287884Z" fill="black"/>
<path d="M62.2915 26.7352C61.7237 26.9297 61.3737 27.2331 61.0781 27.7853L60.8136 28.2676V31.2235C60.8136 34.5605 60.8214 34.6383 61.4126 35.2762C62.2604 36.194 64.1506 36.2485 65.0296 35.3851C65.6753 34.7394 65.8542 33.9538 65.8153 31.8847L65.7919 30.7568H63.3806L63.3339 32.1958H64.1195V32.8726C64.1195 34.0394 63.9328 34.3738 63.3028 34.3738C62.9527 34.3738 62.6727 34.1794 62.6027 33.8838C62.5794 33.7904 62.5638 32.5459 62.5794 31.1224L62.6027 28.5243L62.7894 28.3765C63.3261 27.9409 64.0417 28.2754 64.0417 28.9677C64.0417 29.0766 64.0962 29.1855 64.1584 29.2088C64.2206 29.2322 64.6096 29.1933 65.0218 29.1233L65.7686 28.9832L65.7219 28.5865C65.6052 27.6998 65.0063 26.9375 64.244 26.7119C63.7228 26.5563 62.7738 26.5641 62.2915 26.7352Z" fill="black"/>
<path d="M73.0649 26.7119C72.5749 26.8675 72.1004 27.2953 71.8437 27.8242L71.6259 28.2676V34.2572L71.8281 34.685C72.3182 35.7429 73.3216 36.1785 74.6596 35.9296C75.663 35.7429 76.2931 35.0428 76.3864 34.0082L76.4253 33.5415L75.6397 33.4093C75.2041 33.3315 74.8307 33.2848 74.8074 33.3004C74.7918 33.3237 74.7451 33.5026 74.7062 33.7049C74.6207 34.1871 74.4418 34.3738 74.0606 34.3738C73.7339 34.3738 73.485 34.1871 73.415 33.8916C73.3917 33.7904 73.3761 32.5459 73.3917 31.1224L73.415 28.5243L73.6328 28.3376C73.8739 28.1276 74.0528 28.1043 74.3407 28.2365C74.5429 28.3298 74.6596 28.5554 74.7451 29.0221C74.7996 29.3566 74.7062 29.3411 75.8653 29.131L76.3709 29.0377L76.3631 28.6021C76.3475 27.7309 75.803 26.9841 74.994 26.7197C74.5196 26.5641 73.555 26.5641 73.0649 26.7119Z" fill="black"/>
<path d="M79.4123 26.7508C78.9223 26.9452 78.4944 27.3653 78.2611 27.8709C78.0899 28.2443 78.0822 28.361 78.0822 29.94C78.0822 31.7991 78.1288 31.9936 78.65 32.6003C79.4512 33.5026 81.3725 33.4949 82.2204 32.577C82.726 32.0247 82.9594 30.6168 82.8038 29.0377C82.6793 27.7931 82.3682 27.2097 81.5903 26.8052C81.1236 26.5641 79.9413 26.533 79.4123 26.7508ZM80.7191 28.1587C81.0458 28.3143 81.1158 28.6177 81.1158 29.9867C81.1081 31.3479 81.0536 31.5735 80.6413 31.7291C80.3613 31.838 79.9335 31.6435 79.8246 31.3635C79.7779 31.2313 79.7546 30.6168 79.7701 29.8L79.7935 28.4465L80.0113 28.2598C80.2524 28.0498 80.4313 28.0265 80.7191 28.1587Z" fill="black"/>
<path d="M17.4322 26.7197C17.3933 26.7508 17.37 28.8199 17.37 31.3168V35.8673L19.1046 35.8362C21.0104 35.8051 21.2126 35.7662 21.7104 35.2839C22.0683 34.9417 22.2472 34.5761 22.3561 33.946C22.5505 32.7948 22.2627 31.698 21.6404 31.2857L21.3371 31.0835L21.6793 30.7879C22.1383 30.3834 22.2938 29.9167 22.2861 28.9832C22.2861 28.3687 22.2549 28.2365 22.0449 27.8009C21.796 27.3031 21.5004 27.0386 20.9481 26.8286C20.6448 26.7119 17.5255 26.6185 17.4322 26.7197ZM20.2247 28.3532C20.5203 28.5399 20.6448 29.2788 20.4814 29.87C20.3647 30.2978 20.1703 30.4223 19.6491 30.4378L19.1979 30.4456L19.1746 29.4033C19.1668 28.8277 19.1746 28.3065 19.1979 28.2443C19.2524 28.1043 19.9603 28.1743 20.2247 28.3532ZM20.2714 32.0402C20.5514 32.258 20.6603 32.6625 20.6214 33.2926C20.5592 34.1327 20.3181 34.3738 19.5402 34.3738H19.1591V31.8847H19.618C19.9525 31.8847 20.1236 31.9236 20.2714 32.0402Z" fill="black"/>
<path d="M24.8141 26.7274C24.783 26.7508 24.7597 28.8199 24.7597 31.3168V35.8518H26.5488V32.2658L26.8366 32.2892L27.1321 32.3125L27.6533 34.0471C27.9333 35.0039 28.19 35.8051 28.2056 35.8207C28.2212 35.844 28.6412 35.844 29.1313 35.8362L30.0258 35.8129L28.7501 31.8925L29.0146 31.6358C29.1624 31.4957 29.3724 31.1846 29.4891 30.9512C29.6835 30.5467 29.6991 30.4612 29.6991 29.4733C29.6991 28.571 29.6758 28.3765 29.5357 28.0654C29.1857 27.3186 28.6023 26.8908 27.7389 26.7508C27.2255 26.6652 24.8919 26.6419 24.8141 26.7274ZM27.6689 28.4543C28.1511 28.9055 28.0811 30.3601 27.5678 30.6323C27.49 30.679 27.2255 30.7412 26.9844 30.7646L26.5488 30.819V28.2132L27.0155 28.2443C27.3655 28.2676 27.5289 28.3221 27.6689 28.4543Z" fill="black"/>
<path d="M32.2816 26.7274C32.2505 26.7508 32.2271 28.8199 32.2271 31.3168V35.8518H36.5054V34.2961H34.0162V32.0402H36.1943V30.4923L34.0551 30.4456L34.0085 28.3143L36.4665 28.2676L36.5132 26.673H34.4207C33.2695 26.673 32.3049 26.6963 32.2816 26.7274Z" fill="black"/>
<path d="M38.7379 26.7274C38.7145 26.7663 39.0412 28.8199 39.4535 31.3013L40.208 35.8129L41.7871 35.8596L41.826 35.6029C41.8493 35.4628 42.0282 34.3116 42.2227 33.0515C42.5961 30.6323 42.6505 30.3212 42.6972 30.4456C42.7127 30.4845 42.8683 31.4646 43.0394 32.6236C43.2106 33.7749 43.3973 34.9806 43.4439 35.2917L43.5295 35.8596L45.1008 35.8129L45.8475 31.3013C46.2598 28.8199 46.5787 26.7586 46.5476 26.7274C46.5165 26.6963 46.1198 26.6808 45.6764 26.6886L44.8674 26.7119L44.813 27.1008C44.7819 27.3108 44.6496 28.5399 44.5174 29.8233C44.3774 31.1068 44.2529 32.2114 44.2296 32.2736C44.1673 32.4292 44.1285 32.1958 43.6928 29.2944C43.4906 27.9642 43.2961 26.8208 43.2572 26.7663C43.2028 26.7119 42.9772 26.673 42.6505 26.673C42.3238 26.673 42.0982 26.7119 42.0516 26.7663C42.0049 26.8208 41.9193 27.2719 41.8493 27.762C41.5771 29.66 41.1726 32.2969 41.1492 32.3281C41.1026 32.367 41.0637 32.0169 40.7759 29.2788C40.6358 27.9487 40.4881 26.8208 40.4492 26.7663C40.3714 26.6652 38.8001 26.6263 38.7379 26.7274Z" fill="black"/>
<path d="M48.5389 26.7197C48.5078 26.7508 48.4845 28.8199 48.4845 31.3168V35.8518H50.2736L50.258 31.2779L50.2347 26.7119L49.4101 26.6886C48.959 26.6808 48.57 26.6963 48.5389 26.7197Z" fill="black"/>
<path d="M52.895 26.7274C52.8639 26.7508 52.8405 28.8199 52.8405 31.3168V35.8518H54.3962V32.9192C54.3962 31.2702 54.4274 30.0178 54.4663 30.0645C54.4974 30.1034 54.5907 30.3601 54.6607 30.6401C54.7307 30.9201 55.0808 32.1958 55.4386 33.4793L56.092 35.8129H58.0133L58.0366 31.418C58.0444 28.9988 58.0366 26.9452 58.0133 26.8441C57.9744 26.6808 57.9355 26.673 57.2354 26.673H56.4965V29.6444C56.4965 31.4646 56.4654 32.5848 56.4265 32.5381C56.3876 32.4992 56.1542 31.7135 55.9131 30.7957C55.6719 29.8778 55.3375 28.6021 55.1663 27.972C55.003 27.3342 54.8474 26.7819 54.8241 26.743C54.7696 26.6652 52.9728 26.6419 52.895 26.7274Z" fill="black"/>
<path d="M85.2307 26.8208C84.7562 27.0386 84.4762 27.4431 84.4373 27.9876C84.3829 28.7266 84.7718 29.2944 85.4563 29.4811C86.6153 29.7922 87.5877 28.5943 87.0743 27.4897C86.9031 27.1164 86.732 26.953 86.3431 26.7897C85.9697 26.6341 85.6197 26.6419 85.2307 26.8208ZM86.2731 27.093C86.6776 27.3031 86.8565 27.5753 86.8876 28.0109C86.9342 28.6643 86.5609 29.131 85.9075 29.2166C85.5419 29.2633 85.0596 29.0299 84.8651 28.6954C84.6862 28.3998 84.694 27.7853 84.8807 27.482C85.1452 27.0464 85.8219 26.8597 86.2731 27.093Z" fill="black"/>
<path d="M85.2541 27.3497C85.223 27.3731 85.1996 27.7231 85.1996 28.1276C85.1996 28.851 85.1996 28.851 85.3941 28.851C85.5652 28.851 85.5885 28.8199 85.5885 28.5788C85.5885 28.3687 85.6197 28.3065 85.7286 28.3065C85.8141 28.3065 85.923 28.4154 86.0008 28.5788C86.0942 28.781 86.1797 28.851 86.3275 28.851H86.5142L86.3508 28.5788C86.2031 28.3221 86.2031 28.2909 86.3197 28.1587C86.5064 27.9565 86.4831 27.5598 86.2731 27.4197C86.1019 27.2953 85.3552 27.2486 85.2541 27.3497ZM86.1097 27.7309C86.1642 27.8787 86.0086 27.9954 85.7675 27.9954C85.6274 27.9954 85.5885 27.9487 85.5885 27.8009C85.5885 27.6375 85.6274 27.6064 85.8219 27.6064C85.9697 27.6064 86.0786 27.6531 86.1097 27.7309Z" fill="black"/>
<path d="M78.3311 34.4283C78.3 34.4516 78.2766 34.7861 78.2766 35.1673V35.8518L80.4391 35.8362L82.5938 35.8129V34.4127L80.4858 34.3894C79.3268 34.3816 78.3622 34.3972 78.3311 34.4283Z" fill="black"/>
</svg>
