<svg width="91" height="34" viewBox="0 0 91 34" fill="none" xmlns="http://www.w3.org/2000/svg">
<path d="M1.85476 0.0815083C1.93929 0.117736 2.04797 0.10566 2.0842 0.0694325C2.1325 0.033205 2.06004 -0.00302242 1.92721 0.0090534C1.79438 0.0090534 1.75815 0.0452808 1.85476 0.0815083Z" fill="#191A23"/>
<path d="M10.0905 0.117739C9.99385 0.178118 9.66781 0.238497 9.36591 0.238497C8.72589 0.238497 7.08358 0.516241 6.26243 0.757757C4.54766 1.27702 3.07441 2.1344 2.31364 3.05216C1.77022 3.71633 1.26304 4.82731 1.17851 5.51563C1.15436 5.80545 1.06983 6.07111 1.02152 6.10734C0.876614 6.19187 0.876614 14.2102 1.02152 14.2947C1.06983 14.331 1.15436 14.7053 1.17851 15.14C1.25096 16.0095 1.70985 17.1326 2.21703 17.6639C2.80874 18.2918 3.60575 18.799 5.9243 20.0308C8.3757 21.347 8.70174 21.5765 8.95533 22.1802C9.20893 22.7599 9.19685 30.0174 8.95533 30.6092C8.73797 31.1284 8.38777 31.3096 7.57869 31.3096C7.03528 31.3096 6.87829 31.2492 6.61263 30.9835L6.28658 30.6695L6.21412 22.6995H0.912842V25.3441C0.912842 26.8053 0.961145 28.0249 1.02152 28.0612C1.06983 28.0974 1.15436 28.3993 1.19059 28.7374C1.40795 30.5729 2.90535 32.179 5.26013 33.1089C8.64136 34.4493 14.0634 34.2561 17.3963 32.6741C18.8696 31.9858 19.8356 31.0801 20.4394 29.8484L20.8983 28.9306L20.9345 24.7524C20.9708 20.1515 20.9104 19.4994 20.2704 18.3281C19.6545 17.1929 18.942 16.6616 15.3434 14.657C6.84207 9.93537 7.3251 10.2252 6.99905 9.5731C6.79376 9.16252 6.76961 8.81232 6.76961 6.33678C6.76961 3.75256 6.78169 3.53519 7.0232 3.13669C7.18019 2.85895 7.40963 2.66574 7.71152 2.56913C8.35154 2.35176 8.96741 2.5812 9.29346 3.13669C9.5229 3.52312 9.54705 3.80086 9.58328 6.36093L9.63158 9.1746H20.9587V7.50814C20.9466 5.72092 20.8621 5.1292 20.4515 4.25974C20.0892 3.47481 18.9541 2.31554 18.0484 1.77213C16.7201 0.987198 13.9185 0.238497 12.3124 0.238497C11.9622 0.238497 11.6362 0.178118 11.5999 0.117739C11.5033 -0.0392464 10.332 -0.0392464 10.0905 0.117739Z" fill="#191A23"/>
<path d="M21.8644 33.2658L29.6895 33.3021L37.5026 33.3262V27.8921H32.793V0.721528H21.804L21.8644 33.2658Z" fill="#191A23"/>
<path d="M42.1638 5.21372C41.8498 7.68926 41.3547 11.3965 41.0649 13.4615C40.594 16.734 38.4686 32.9639 38.4686 33.2296C38.4686 33.3141 44.9654 33.3745 45.0016 33.29C45.0137 33.2779 45.1828 31.2854 45.3881 28.8582L45.7745 24.4505L46.8975 24.4143C47.5013 24.4022 48.0085 24.4263 48.0085 24.4746C48.0085 24.5229 48.093 25.3562 48.1896 26.3222C48.5036 29.2567 48.8538 32.8915 48.8538 33.1089C48.8538 33.3141 49.1678 33.3262 53.7928 33.3262C56.522 33.3262 58.7681 33.2779 58.8043 33.2296C58.8405 33.1692 58.7077 32.0462 58.5024 30.7178C58.3092 29.4016 57.4639 23.1463 56.6427 16.8427C55.3265 6.85603 54.9038 3.74047 54.5415 1.32531L54.4691 0.781899L48.6002 0.745671L42.7435 0.721519L42.1638 5.21372ZM47.4047 12.9302C47.5979 15.9491 47.7791 18.7507 47.8153 19.1613L47.8757 19.9221H46.8613C46.3058 19.9221 45.8228 19.8858 45.7986 19.8255C45.7624 19.7651 46.8372 7.62889 46.9096 7.37529C46.9941 7.04925 47.1028 8.29305 47.4047 12.9302Z" fill="#191A23"/>
<path d="M59.9032 33.2658L64.4075 33.3021L68.8997 33.3262V20.8398C68.8997 12.6404 68.9359 8.31721 69.0204 8.26891C69.0929 8.23268 69.1412 8.25683 69.1412 8.31721C69.1412 8.55873 70.699 22.144 70.8801 23.4844C70.9767 24.209 71.2544 26.5275 71.496 28.6167C71.7254 30.7058 71.9548 32.6258 71.9911 32.8794L72.0635 33.3262L74.6719 33.3021L77.2924 33.2658L77.389 32.4205C77.4493 31.9496 78.0894 26.3947 78.8018 20.067C79.5385 13.5702 80.1664 8.48627 80.2388 8.41382C80.3355 8.31721 80.3717 11.626 80.3717 20.8036V33.3262H90.7569V0.721528H82.7868C76.4953 0.721528 74.8168 0.757755 74.8168 0.866438C74.8168 0.950968 74.6598 2.24308 74.4666 3.74048C74.2855 5.23788 73.7783 9.6214 73.3556 13.4857C72.8847 17.7967 72.5345 20.5138 72.462 20.4896C72.4016 20.4655 72.3292 20.2843 72.305 20.0911C72.2809 19.8979 71.7495 15.5144 71.1216 10.358C70.5057 5.18958 69.9865 0.914741 69.9865 0.842286C69.9865 0.757755 68.2717 0.721528 64.9146 0.721528H59.8428L59.9032 33.2658ZM87.7862 2.71404L88.1123 3.74048H89.0783C89.5976 3.74048 90.0323 3.77671 90.0323 3.82501C90.0323 3.88539 89.7063 4.13898 89.3078 4.40465C88.9093 4.67032 88.5832 4.93599 88.5832 4.99637C88.5832 5.05674 88.6919 5.4794 88.8368 5.93828C88.9697 6.40924 89.0663 6.80774 89.0421 6.83189C89.018 6.85604 88.6195 6.6266 88.1727 6.3247L87.3515 5.76922L86.5062 6.33678C86.0473 6.63868 85.6367 6.88019 85.6126 6.85604C85.5884 6.83189 85.7092 6.38508 85.8662 5.8779L86.1439 4.94806L85.7696 4.65824C85.5522 4.50126 85.2382 4.28389 85.0571 4.16313C84.8639 4.05445 84.719 3.90954 84.719 3.84916C84.719 3.78878 85.1416 3.74048 85.6609 3.74048H86.5907L86.8805 2.79857C87.3273 1.36155 87.3394 1.34947 87.7862 2.71404ZM87.7742 9.11422L88.1123 10.1286L90.0927 10.201L89.344 10.7324C88.9214 11.0343 88.5832 11.3362 88.5832 11.4086C88.5832 11.4811 88.6919 11.8796 88.8368 12.3022C88.9817 12.7128 89.0663 13.0751 89.03 13.1113C88.9938 13.1475 88.6678 12.9785 88.2934 12.737C87.9191 12.5075 87.5447 12.2781 87.4481 12.2419C87.3636 12.2056 86.9771 12.3747 86.6028 12.6162C85.5281 13.3045 85.5401 13.3045 85.8662 12.2419C86.0232 11.7226 86.1077 11.2637 86.0594 11.2275C85.3228 10.7565 84.719 10.3097 84.719 10.2373C84.719 10.189 85.1296 10.1407 85.6488 10.1165L86.5666 10.0803L86.8564 9.23498C87.2428 8.0757 87.2307 8.08777 87.3515 8.08777C87.3998 8.08777 87.593 8.54665 87.7742 9.11422ZM88.8851 16.3959C90.1289 16.4442 90.1531 16.4805 89.3561 17.048C88.9576 17.3258 88.6195 17.5673 88.5953 17.5914C88.5591 17.6156 88.6557 18.0503 88.8006 18.5454C88.9576 19.0526 89.0663 19.4873 89.0421 19.4994C89.018 19.5236 88.6557 19.3304 88.221 19.0647C87.7862 18.8111 87.3877 18.5937 87.3274 18.5937C87.267 18.5937 86.8685 18.8111 86.4458 19.0888C86.0111 19.3545 85.6367 19.5598 85.6126 19.5236C85.5764 19.4994 85.6126 19.3424 85.673 19.1734C85.7333 19.0043 85.8662 18.5937 85.9749 18.2556L86.156 17.6277L85.4314 17.1205C85.045 16.8427 84.719 16.565 84.719 16.5167C84.719 16.4684 85.1416 16.4201 85.6609 16.4201H86.6028L86.8805 15.5385C87.3032 14.2223 87.3636 14.1981 87.7259 15.3574L88.0519 16.3597L88.8851 16.3959Z" fill="#191A23"/>
<path d="M0.924918 1.0355C0.924918 1.16833 0.961145 1.20456 0.997372 1.10795C1.0336 1.02342 1.02152 0.914739 0.985297 0.878511C0.949069 0.830208 0.912842 0.902663 0.924918 1.0355Z" fill="#191A23"/>
<path d="M1.85476 1.89287C1.93929 1.9291 2.04797 1.91703 2.0842 1.8808C2.1325 1.84457 2.06004 1.80834 1.92721 1.82042C1.79438 1.82042 1.75815 1.85665 1.85476 1.89287Z" fill="#191A23"/>
</svg>
