<svg width="141" height="29" viewBox="0 0 141 29" fill="none" xmlns="http://www.w3.org/2000/svg">
<g opacity="0.965">
<path fill-rule="evenodd" clip-rule="evenodd" d="M10.4135 0.0605469C11.294 0.0605469 12.1745 0.0605469 13.055 0.0605469C16.1362 0.311485 18.7777 1.5379 20.9795 3.73979C19.5958 5.12343 18.2122 6.50709 16.8285 7.89074C16.2585 7.8357 15.7553 7.58411 15.3191 7.13602C13.9019 6.36204 12.3925 6.04757 10.7908 6.19262C9.27229 6.49655 8.61191 7.40849 8.80968 8.92847C9.0927 9.46306 9.50151 9.87187 10.0361 10.1549C12.3858 10.5569 14.7129 11.0601 17.0172 11.6643C19.341 12.6319 20.6933 14.3615 21.0738 16.853C21.6487 22.9477 18.9129 26.5639 12.8663 27.7021C9.61076 28.2068 6.4661 27.8294 3.43232 26.57C2.54219 26.063 1.72458 25.4655 0.979492 24.7775C0.979492 24.7147 0.979492 24.6517 0.979492 24.5889C2.35243 22.9638 3.79896 21.3913 5.31911 19.8719C7.96736 21.6907 10.7975 22.0366 13.8097 20.9096C15.0877 19.6321 15.0248 18.4372 13.621 17.3247C11.7946 17.0256 9.97066 16.7112 8.1493 16.3813C3.61608 14.8366 1.69783 11.6605 2.39459 6.853C2.95106 3.50798 4.8693 1.40107 8.1493 0.532245C8.92991 0.373864 9.68462 0.216631 10.4135 0.0605469Z" fill="#191A23"/>
<path fill-rule="evenodd" clip-rule="evenodd" d="M151.734 27.9851C151.734 28.0479 151.734 28.1109 151.734 28.1738C149.393 28.1485 147.066 27.9598 144.753 27.6077C144.298 26.3066 143.921 24.9858 143.621 23.6455C140.978 23.5405 138.336 23.4147 135.696 23.2681C135.282 24.5126 134.904 25.7705 134.564 27.0417C132.361 27.0032 130.16 26.9089 127.961 26.7587C127.786 26.6855 127.66 26.5596 127.583 26.3813C130.137 19.6632 132.653 12.9336 135.13 6.19262C133.431 6.12189 131.733 6.15334 130.036 6.28696C130.036 4.58885 130.036 2.89074 130.036 1.19262C134.12 0.906307 138.209 0.654736 142.3 0.437905C145.412 9.64619 148.556 18.8286 151.734 27.9851ZM139.659 11.3813C140.496 13.4529 141.188 15.5913 141.734 17.7964C140.349 17.8278 138.966 17.7963 137.583 17.7021C138.294 15.6006 138.986 13.4937 139.659 11.3813Z" fill="#191A23"/>
<path fill-rule="evenodd" clip-rule="evenodd" d="M24.3757 1.19262C26.577 1.31841 28.7782 1.44419 30.9795 1.56998C30.9795 4.71464 30.9795 7.85928 30.9795 11.0039C33.1786 11.1269 35.3799 11.1898 37.5833 11.1926C37.5833 8.04796 37.5833 4.90332 37.5833 1.75866C39.7787 1.93091 41.9801 1.99381 44.187 1.94734C44.187 9.93476 44.187 17.9222 44.187 25.9096C41.9821 26.0155 39.7808 26.1411 37.5833 26.287C37.5833 23.0794 37.5833 19.8719 37.5833 16.6643C35.3819 16.6643 33.1808 16.6643 30.9795 16.6643C30.9795 19.9347 30.9795 23.2053 30.9795 26.4756C28.7727 26.5538 26.5714 26.6796 24.3757 26.853C24.3757 18.2995 24.3757 9.74608 24.3757 1.19262Z" fill="#030303"/>
<path fill-rule="evenodd" clip-rule="evenodd" d="M114.376 1.75866C115.13 1.75866 115.885 1.75866 116.64 1.75866C116.64 8.04796 116.64 14.3373 116.64 20.6266C119.845 20.7726 123.052 20.8985 126.263 21.0039C126.263 22.8907 126.263 24.7775 126.263 26.6643C120.858 26.3709 115.449 26.1822 110.036 26.0983C110.036 18.048 110.036 9.99766 110.036 1.94734C111.518 2.00873 112.964 1.94584 114.376 1.75866Z" fill="#030303"/>
<path fill-rule="evenodd" clip-rule="evenodd" d="M94.187 2.13602C102.805 1.57179 106.83 5.59694 106.263 14.2115C106.683 22.9411 102.532 26.8721 93.8097 26.0039C87.5544 24.5202 84.8499 20.5579 85.6965 14.1172C84.8584 7.44441 87.6885 3.4507 94.187 2.13602ZM95.3191 7.41904C98.1521 7.32762 99.5042 8.71126 99.3757 11.57C99.5706 14.0422 99.445 16.495 98.9984 18.9285C97.9755 20.6536 96.4976 21.1881 94.5644 20.5322C93.2591 19.8432 92.5987 18.7425 92.5833 17.2304C92.4178 14.7696 92.4806 12.3167 92.7719 9.87187C93.1102 8.49538 93.9593 7.67777 95.3191 7.41904Z" fill="#191A23"/>
<path fill-rule="evenodd" clip-rule="evenodd" d="M49.6587 2.3247C51.8601 2.3247 54.0612 2.3247 56.2625 2.3247C56.2625 10.1234 56.2625 17.9222 56.2625 25.7209C54.0612 25.7209 51.8601 25.7209 49.6587 25.7209C49.6587 17.9222 49.6587 10.1234 49.6587 2.3247Z" fill="#191A23"/>
<path fill-rule="evenodd" clip-rule="evenodd" d="M61.5455 2.51338C63.4963 2.48196 65.4459 2.51341 67.3946 2.60772C70.0446 6.24087 72.7174 9.85723 75.4134 13.4568C75.5078 9.87241 75.5393 6.28751 75.5078 2.70206C77.7712 2.46824 80.0353 2.46824 82.3002 2.70206C82.3002 10.3121 82.3002 17.9222 82.3002 25.5322C80.2916 25.3985 78.2789 25.3041 76.2625 25.2492C73.5204 21.6832 70.8476 18.0669 68.2436 14.4002C68.1493 18.1103 68.1178 21.8211 68.1493 25.5322C65.948 25.5322 63.7468 25.5322 61.5455 25.5322C61.5455 17.8593 61.5455 10.1863 61.5455 2.51338Z" fill="#191A23"/>
</g>
</svg>
