<svg width="146" height="36" viewBox="0 0 146 36" fill="none" xmlns="http://www.w3.org/2000/svg">
<path d="M50.7008 29.3584V14.8034H50.9934L62.9473 29.3584H66.7091V7.98413H62.5294V22.5025H62.2368L50.2828 7.98413H46.5211V29.3584H50.7008ZM78.5376 29.6884C84.0548 29.6884 87.4404 26.5354 87.4404 21.256C87.4404 16.0132 84.0548 12.8236 78.5376 12.8236C73.0622 12.8236 69.6348 16.0132 69.6348 21.256C69.6766 26.5354 73.0204 29.6884 78.5376 29.6884ZM78.5376 26.6087C75.6118 26.6087 73.9399 24.6656 73.9399 21.256C73.9399 17.883 75.6118 15.9033 78.5376 15.9033C81.4634 15.9033 83.1353 17.883 83.1353 21.256C83.1353 24.6656 81.4634 26.6087 78.5376 26.6087ZM91.2439 9.194V13.2635H88.3181V16.1966H91.2439V25.0322C91.2439 28.1852 92.9158 29.4318 97.1791 29.4318C97.9732 29.4318 98.7674 29.3584 99.3943 29.2484V26.3888C98.8928 26.4254 98.5584 26.4621 97.9732 26.4621C96.2177 26.4621 95.4236 25.7655 95.4236 24.1523V16.1966H99.3943V13.2635H95.4236V9.194H91.2439ZM101.902 29.3584H106.082V13.1536H101.902V29.3584ZM103.992 10.4772C105.371 10.4772 106.5 9.4873 106.5 8.27743C106.5 7.0309 105.371 6.04102 103.992 6.04102C102.613 6.04102 101.484 7.0309 101.484 8.27743C101.484 9.4873 102.613 10.4772 103.992 10.4772ZM117.534 29.6884C123.051 29.6884 126.437 26.5354 126.437 21.256C126.437 16.0132 123.051 12.8236 117.534 12.8236C112.059 12.8236 108.631 16.0132 108.631 21.256C108.631 26.5354 111.975 29.6884 117.534 29.6884ZM117.534 26.6087C114.608 26.6087 112.937 24.6656 112.937 21.256C112.937 17.883 114.608 15.9033 117.534 15.9033C120.418 15.9033 122.132 17.883 122.132 21.256C122.09 24.6656 120.418 26.6087 117.534 26.6087ZM128.903 29.3584H133.083V19.9361C133.083 17.5531 134.671 16.0499 137.137 16.0499C139.687 16.0499 140.857 17.2964 140.857 19.7528V29.3584H145.037V18.8729C145.037 14.9867 142.78 12.8236 138.684 12.8236C135.925 12.8236 134.086 13.9235 133.208 15.7566H132.916V13.1536H128.861C128.903 13.1536 128.903 29.3584 128.903 29.3584Z" fill="#FDF6EC"/>
<path fill-rule="evenodd" clip-rule="evenodd" d="M6.4449 6.61608C7.66141 7.48588 8.10142 7.41721 10.3791 7.27988L31.8363 6.1354C32.3022 6.1354 31.9139 5.72339 31.7586 5.67761L28.1867 3.41156C27.5138 2.95377 26.582 2.40442 24.8478 2.54176L4.08954 3.89224C3.33893 3.96091 3.18363 4.30425 3.49422 4.55603L6.4449 6.61608ZM7.73906 11.0337V30.9933C7.73906 32.0691 8.33437 32.4583 9.70618 32.3896L33.2857 31.1765C34.6575 31.1078 34.8128 30.3753 34.8128 29.5055V9.68327C34.8128 8.81347 34.4246 8.33279 33.5963 8.40146L8.95557 9.68327C8.04966 9.75194 7.73906 10.1639 7.73906 11.0337ZM31.008 12.1096C31.1633 12.7047 31.008 13.3227 30.335 13.3914L29.1962 13.5974V28.3382C28.2126 28.796 27.3067 29.0706 26.5302 29.0706C25.3137 29.0706 25.0031 28.7273 24.0972 27.7202L16.6687 17.397V27.3768L19.0241 27.8346C19.0241 27.8346 19.0241 29.0477 17.1346 29.0477L11.9062 29.3224C11.7509 29.0477 11.9062 28.3839 12.4239 28.2466L13.7957 27.9033V14.7189L11.9062 14.5816C11.7509 13.9865 12.1392 13.1167 13.2004 13.048L18.817 12.7047L26.5561 23.1423V13.9178L24.589 13.7118C24.4337 12.9794 25.0549 12.43 25.8055 12.3613L31.008 12.1096ZM2.35537 2.06108L23.9678 0.664825C26.6079 0.45882 27.3067 0.596157 28.9632 1.67196L35.8482 5.95229C36.987 6.68475 37.3753 6.89076 37.3753 7.69189V31.1993C37.3753 32.6643 36.7799 33.5341 34.6575 33.6714L9.57677 35.0219C7.97201 35.0906 7.2214 34.8845 6.39314 33.9461L1.29416 28.1093C0.388247 27.0335 0 26.2323 0 25.2939V4.3958C0 3.18266 0.621195 2.19842 2.35537 2.06108Z" fill="#FDF6EC"/>
</svg>
